<svg width="2219" height="1145" viewBox="0 0 2219 1145" fill="none" xmlns="http://www.w3.org/2000/svg">
<g opacity="0.3">
<line y1="0.5" x2="2219" y2="0.5" stroke="black" stroke-opacity="0.2"/>
<line y1="44.5" x2="2219" y2="44.5" stroke="black" stroke-opacity="0.2"/>
<line y1="88.5" x2="2219" y2="88.5" stroke="black" stroke-opacity="0.2"/>
<line y1="132.5" x2="2219" y2="132.5" stroke="black" stroke-opacity="0.2"/>
<line y1="176.5" x2="2219" y2="176.5" stroke="black" stroke-opacity="0.2"/>
<line y1="220.5" x2="2219" y2="220.5" stroke="black" stroke-opacity="0.2"/>
<line y1="264.5" x2="2219" y2="264.5" stroke="black" stroke-opacity="0.2"/>
<line y1="308.5" x2="2219" y2="308.5" stroke="black" stroke-opacity="0.2"/>
<line y1="352.5" x2="2219" y2="352.5" stroke="black" stroke-opacity="0.2"/>
<line y1="396.5" x2="2219" y2="396.5" stroke="black" stroke-opacity="0.2"/>
<line y1="440.5" x2="2219" y2="440.5" stroke="black" stroke-opacity="0.2"/>
<line y1="484.5" x2="2219" y2="484.5" stroke="black" stroke-opacity="0.2"/>
<line y1="528.5" x2="2219" y2="528.5" stroke="black" stroke-opacity="0.2"/>
<line y1="572.5" x2="2219" y2="572.5" stroke="black" stroke-opacity="0.2"/>
<line y1="616.5" x2="2219" y2="616.5" stroke="black" stroke-opacity="0.2"/>
<line y1="660.5" x2="2219" y2="660.5" stroke="black" stroke-opacity="0.2"/>
<line y1="704.5" x2="2219" y2="704.5" stroke="black" stroke-opacity="0.2"/>
<line y1="748.5" x2="2219" y2="748.5" stroke="black" stroke-opacity="0.2"/>
<line y1="792.5" x2="2219" y2="792.5" stroke="black" stroke-opacity="0.2"/>
<line y1="836.5" x2="2219" y2="836.5" stroke="black" stroke-opacity="0.2"/>
<line y1="880.5" x2="2219" y2="880.5" stroke="black" stroke-opacity="0.2"/>
<line y1="924.5" x2="2219" y2="924.5" stroke="black" stroke-opacity="0.2"/>
<line y1="968.5" x2="2219" y2="968.5" stroke="black" stroke-opacity="0.2"/>
<line y1="1012.5" x2="2219" y2="1012.5" stroke="black" stroke-opacity="0.2"/>
<line y1="1056.5" x2="2219" y2="1056.5" stroke="black" stroke-opacity="0.2"/>
<line y1="1100.5" x2="2219" y2="1100.5" stroke="black" stroke-opacity="0.2"/>
<line y1="1144.5" x2="2219" y2="1144.5" stroke="black" stroke-opacity="0.2"/>
</g>
</svg>
