<svg width="166" height="37" viewBox="0 0 166 37" fill="none" xmlns="http://www.w3.org/2000/svg">
<path d="M44.9529 22.652C44.5168 22.5246 44.1032 22.3298 43.727 22.0749V20.0079C44.0533 20.2811 44.4164 20.507 44.8056 20.679C45.2863 20.891 45.8079 20.9941 46.333 20.981C46.7652 21.0014 47.1969 20.9313 47.6006 20.7754C48.0044 20.6194 48.3712 20.3808 48.6778 20.075C49.3235 19.2693 49.6353 18.2457 49.5487 17.2161C49.5804 16.4718 49.4333 15.7308 49.1199 15.0552C48.8642 14.553 48.4593 14.1427 47.961 13.8807C47.0744 13.467 46.0644 13.4047 45.1338 13.7063C44.8203 13.8114 44.5174 13.9463 44.2294 14.1089V21.4642H41.8846V14.0015C41.8711 13.7281 41.9337 13.4562 42.0655 13.2164C42.2363 12.965 42.4664 12.7599 42.7354 12.6191C43.2223 12.3334 43.7419 12.1081 44.283 11.948C44.9576 11.7518 45.6574 11.6569 46.3598 11.6661C47.3299 11.6505 48.2913 11.8523 49.1735 12.2567C50.013 12.6401 50.7146 13.2726 51.1834 14.0687C51.7028 15.0432 51.9526 16.1392 51.9069 17.243C51.9455 18.3292 51.7154 19.4081 51.2369 20.3837C50.8273 21.1907 50.1793 21.8515 49.3812 22.2762C48.5541 22.7067 47.6335 22.9257 46.7015 22.9137C46.1083 22.9222 45.5177 22.8338 44.9529 22.652ZM44.2294 26.6786C44.086 26.7323 43.938 26.7728 43.7872 26.7994C43.5822 26.841 43.3734 26.8613 43.1642 26.8598C42.8275 26.8839 42.4926 26.7941 42.2129 26.6048C42.098 26.4998 42.0096 26.369 41.9549 26.2232C41.9001 26.0774 41.8807 25.9207 41.898 25.7659V20.7394L44.2294 20.7796V26.6786Z" fill="#505050"/>
<path d="M55.4441 18.5851L55.3302 16.8805L61.7549 15.9745C61.7344 15.316 61.4775 14.687 61.0314 14.2028C60.7783 13.9493 60.474 13.7529 60.1389 13.6267C59.8038 13.5005 59.4457 13.4476 59.0886 13.4713C58.6976 13.467 58.3101 13.5462 57.952 13.7035C57.5939 13.8609 57.2734 14.0929 57.0118 14.384C56.4131 15.11 56.1073 16.034 56.1542 16.9745L56.2011 17.8335C56.2246 18.2924 56.3385 18.7422 56.5363 19.1568C56.734 19.5714 57.0118 19.9428 57.3534 20.2494C58.084 20.8137 58.9912 21.0991 59.9126 21.0547C60.5061 21.0606 61.0959 20.9606 61.6544 20.7595C62.1032 20.6049 62.5291 20.3905 62.9206 20.1219C63.1 20.2307 63.2515 20.3801 63.3628 20.5581C63.4755 20.732 63.536 20.9347 63.5369 21.142C63.529 21.3226 63.4795 21.4989 63.3923 21.6572C63.3052 21.8155 63.1827 21.9516 63.0345 22.0547C62.6379 22.3583 62.1811 22.5734 61.6946 22.6855C61.0711 22.8462 60.429 22.923 59.7853 22.9137C58.7248 22.9278 57.6751 22.6982 56.717 22.2426C55.8509 21.8289 55.1346 21.1559 54.667 20.3165C54.159 19.3498 53.9097 18.2677 53.9435 17.1758C53.9232 16.3709 54.0551 15.5694 54.332 14.8135C54.5765 14.1658 54.9529 13.5761 55.4374 13.0821C55.9063 12.6117 56.4706 12.2478 57.0922 12.015C57.7348 11.7738 58.4157 11.651 59.102 11.6527C59.9815 11.635 60.8509 11.8429 61.6276 12.2566C62.3424 12.6389 62.9347 13.2159 63.336 13.921C63.751 14.6597 63.9614 15.4961 63.9456 16.3436C63.9715 16.6499 63.8752 16.954 63.6776 17.1892C63.4651 17.3806 63.1927 17.4921 62.9072 17.5046L55.4441 18.5851Z" fill="#505050"/>
<path d="M73.5061 20.5111V13.129H75.8375V20.6923C75.8501 20.964 75.78 21.2331 75.6365 21.464C75.4554 21.6972 75.2271 21.8893 74.9665 22.0278C74.534 22.287 74.0703 22.49 73.5865 22.6317C72.9346 22.8268 72.257 22.9218 71.5767 22.9136C70.541 22.9375 69.5124 22.736 68.562 22.323C67.714 21.9461 67.0095 21.3062 66.5521 20.4976C66.0427 19.5247 65.7978 18.4346 65.842 17.3368C65.7979 16.229 66.0402 15.1287 66.5455 14.1423C66.9853 13.3418 67.6616 12.6972 68.4816 12.2968C69.3156 11.8891 70.2333 11.6823 71.1613 11.6928C71.7013 11.6872 72.239 11.7641 72.7558 11.921C73.181 12.0378 73.5823 12.2286 73.9415 12.4847V14.498C73.6361 14.2167 73.2849 13.9898 72.9031 13.8269C72.4377 13.6278 71.9354 13.5294 71.4293 13.5384C70.8675 13.5342 70.3132 13.6678 69.8147 13.9276C69.3051 14.1984 68.8962 14.6268 68.649 15.149C68.3332 15.8382 68.184 16.5924 68.2136 17.3502C68.1629 17.8591 68.217 18.373 68.3726 18.8602C68.5282 19.3473 68.7819 19.7973 69.118 20.1822C69.4416 20.4843 69.8223 20.7183 70.2377 20.8704C70.6531 21.0226 71.0947 21.0898 71.5365 21.0681C71.9289 21.0769 72.3202 21.0225 72.6955 20.907C72.9786 20.8034 73.2502 20.6707 73.5061 20.5111ZM75.8375 13.6592H73.5061V7.88099C73.5999 7.84744 73.7406 7.81388 73.9348 7.76691C74.1437 7.71995 74.3573 7.69743 74.5713 7.6998C74.9115 7.67226 75.2512 7.75968 75.536 7.9481C75.6441 8.05476 75.7272 8.18413 75.7794 8.32688C75.8315 8.46963 75.8513 8.62219 75.8375 8.77355V13.6592Z" fill="#505050"/>
<path d="M82.9254 11.666C84.1119 11.6016 85.2872 11.9242 86.2751 12.5854C86.6994 12.9321 87.0324 13.3776 87.2449 13.883C87.4575 14.3884 87.5431 14.9383 87.4944 15.4846V20.7661C87.511 21.0558 87.4334 21.3431 87.2733 21.5849C87.0891 21.8028 86.8607 21.9789 86.6034 22.1016C86.1227 22.3656 85.609 22.5643 85.0759 22.6922C84.384 22.8665 83.6723 22.95 82.9589 22.9405C81.7548 23.012 80.5577 22.7122 79.5288 22.0815C79.1263 21.802 78.8018 21.4241 78.5861 20.9836C78.3703 20.5432 78.2705 20.0548 78.2962 19.5649C78.27 19.1321 78.344 18.6992 78.5126 18.2999C78.6811 17.9006 78.9395 17.5457 79.2676 17.263C80.0695 16.6699 81.0315 16.333 82.0277 16.2966L85.1764 15.9812V15.4846C85.1949 15.2042 85.1433 14.9236 85.0263 14.6681C84.9094 14.4127 84.7307 14.1905 84.5065 14.0216C83.9686 13.6829 83.3385 13.521 82.7043 13.5585C82.1147 13.5555 81.5279 13.6392 80.9625 13.8068C80.4499 13.956 79.9502 14.1468 79.4685 14.3773C79.3188 14.2552 79.1917 14.1075 79.0934 13.9411C78.9835 13.7737 78.9253 13.5776 78.9259 13.3773C78.9285 13.1241 79.0147 12.8788 79.171 12.6797C79.3273 12.4806 79.545 12.3389 79.7901 12.2767C80.2563 12.0665 80.747 11.9155 81.2506 11.8271C81.8024 11.7199 82.3633 11.666 82.9254 11.666ZM82.9924 21.1017C83.4628 21.1099 83.932 21.0511 84.3859 20.9272C84.6787 20.8498 84.9619 20.7395 85.23 20.5984V17.6724L82.7177 17.9475C82.1651 17.9523 81.6238 18.1052 81.1501 18.3904C80.9748 18.5132 80.8336 18.6787 80.7399 18.8712C80.6461 19.0638 80.6028 19.2771 80.6141 19.491C80.6062 19.7216 80.6561 19.9504 80.759 20.1567C80.862 20.363 81.0149 20.5402 81.2037 20.6722C81.7425 20.994 82.3665 21.1438 82.9924 21.1017Z" fill="#505050"/>
<path d="M94.9444 22.2359C94.109 22.2411 93.2821 22.0672 92.5193 21.7259C91.7567 21.3713 91.1259 20.784 90.7171 20.0481C90.2303 19.0995 89.9993 18.04 90.0472 16.9745C90.0105 15.9572 90.2416 14.9481 90.7171 14.0485C91.154 13.2789 91.8124 12.6591 92.6064 12.2701C93.4801 11.8531 94.439 11.6463 95.4067 11.6661C96.0867 11.6621 96.7637 11.7571 97.4165 11.948C97.95 12.0998 98.4596 12.3257 98.9306 12.619C99.1565 12.7734 99.3557 12.9638 99.5201 13.1828C99.673 13.4106 99.7525 13.68 99.7479 13.9545V21.0078H97.4634V14.0955C97.1968 13.9393 96.9137 13.8133 96.6193 13.7197C96.2319 13.5956 95.8267 13.5366 95.4201 13.5452C95.0099 13.5276 94.6004 13.5941 94.2168 13.7406C93.8332 13.8872 93.4835 14.1107 93.1892 14.3975C92.8845 14.744 92.6522 15.1483 92.5061 15.5863C92.3599 16.0243 92.3029 16.4872 92.3384 16.9476C92.3384 18.2227 92.613 19.1086 93.1758 19.632C93.7433 20.1516 94.4909 20.4286 95.2593 20.4038C95.7757 20.4247 96.2892 20.3163 96.7533 20.0884C97.0895 19.9063 97.4003 19.6807 97.6778 19.4173L97.7716 21.3702C97.4446 21.6377 97.0725 21.8445 96.6729 21.9809C96.1164 22.1678 95.5311 22.2542 94.9444 22.2359ZM97.5036 22.7795V20.4843H99.768V22.8667C99.8129 23.7362 99.5781 24.5971 99.098 25.3229C98.634 25.9471 97.9915 26.4152 97.2557 26.6651C96.4164 26.9597 95.5322 27.1051 94.643 27.0946C93.9651 27.1071 93.2888 27.0258 92.6331 26.8531C92.2196 26.7562 91.8192 26.6098 91.4407 26.4168C91.2295 26.3157 91.0502 26.1583 90.9225 25.9617C90.7949 25.7652 90.7238 25.5372 90.7171 25.3028C90.7065 25.0675 90.7647 24.8343 90.8846 24.6317C90.9849 24.4693 91.1228 24.3335 91.2866 24.2358C91.7111 24.5263 92.1761 24.7525 92.6666 24.9069C93.2575 25.0976 93.8749 25.1927 94.4956 25.1887C95.2837 25.2416 96.0673 25.0341 96.7265 24.5982C96.9891 24.3771 97.1962 24.0974 97.3312 23.7815C97.4662 23.4656 97.5252 23.1224 97.5036 22.7795Z" fill="#505050"/>
<path d="M113.013 17.2898C113.031 18.3203 112.802 19.3402 112.343 20.2628C111.925 21.0717 111.283 21.7427 110.494 22.1955C109.622 22.6496 108.653 22.8867 107.67 22.8867C106.687 22.8867 105.719 22.6496 104.846 22.1955C104.046 21.7389 103.395 21.0609 102.97 20.2426C102.507 19.3195 102.277 18.2962 102.301 17.263C102.27 16.2291 102.5 15.2042 102.97 14.2833C103.4 13.4643 104.056 12.7864 104.86 12.3304C105.724 11.8611 106.697 11.6296 107.68 11.6593C108.65 11.6312 109.61 11.8629 110.46 12.3304C111.257 12.7892 111.905 13.4669 112.329 14.2833C112.802 15.2133 113.037 16.2464 113.013 17.2898ZM107.653 13.5451C107.24 13.5332 106.83 13.6174 106.454 13.7908C106.079 13.9643 105.749 14.2224 105.489 14.545C104.914 15.3398 104.63 16.3094 104.685 17.2898C104.626 18.2718 104.902 19.2448 105.469 20.048C105.741 20.3599 106.076 20.6098 106.452 20.7811C106.828 20.9524 107.237 21.041 107.65 21.041C108.063 21.041 108.472 20.9524 108.848 20.7811C109.224 20.6098 109.559 20.3599 109.831 20.048C110.395 19.2439 110.669 18.271 110.608 17.2898C110.663 16.3125 110.387 15.345 109.824 14.545C109.569 14.2197 109.24 13.9596 108.865 13.7858C108.49 13.612 108.08 13.5295 107.667 13.5451H107.653Z" fill="#505050"/>
<path d="M119.986 22.2358C119.149 22.242 118.319 22.0681 117.554 21.7258C116.792 21.3712 116.161 20.7839 115.752 20.048C115.262 19.1007 115.031 18.0402 115.082 16.9744C115.042 15.9568 115.274 14.9469 115.752 14.0484C116.189 13.2788 116.848 12.659 117.641 12.27C118.513 11.8538 119.47 11.647 120.435 11.666C121.126 11.659 121.815 11.7539 122.478 11.9479C123.011 12.1007 123.521 12.3266 123.992 12.619C124.218 12.7733 124.418 12.9637 124.582 13.1827C124.735 13.4105 124.814 13.6799 124.81 13.9544V21.0077H122.519V14.0954C122.255 13.9379 121.974 13.8118 121.681 13.7196C121.294 13.5955 120.889 13.5365 120.482 13.5451C120.072 13.529 119.663 13.5963 119.28 13.7428C118.896 13.8892 118.546 14.1119 118.251 14.3974C117.949 14.7451 117.718 15.1496 117.573 15.5875C117.428 16.0253 117.372 16.4876 117.407 16.9475C117.407 18.2226 117.682 19.1085 118.244 19.6319C118.812 20.1515 119.56 20.4285 120.328 20.4037C120.844 20.4246 121.358 20.3162 121.822 20.0883C122.158 19.9062 122.469 19.6806 122.746 19.4172L122.84 21.3701C122.512 21.6362 122.14 21.8428 121.741 21.9808C121.176 22.1709 120.582 22.2573 119.986 22.2358ZM122.545 22.7794V20.4842H124.81V22.8666C124.855 23.7361 124.62 24.5971 124.14 25.3229C123.676 25.947 123.033 26.4151 122.298 26.665C121.458 26.9596 120.574 27.105 119.685 27.0946C119.007 27.107 118.331 27.0257 117.675 26.853C117.261 26.7561 116.861 26.6097 116.482 26.4167C116.271 26.3156 116.092 26.1582 115.964 25.9616C115.837 25.7651 115.766 25.5371 115.759 25.3027C115.745 25.0671 115.803 24.8329 115.926 24.6316C116.027 24.4692 116.165 24.3334 116.328 24.2357C116.753 24.5262 117.218 24.7524 117.708 24.9068C118.299 25.098 118.917 25.1932 119.537 25.1886C120.325 25.2395 121.108 25.0322 121.768 24.5981C122.026 24.3743 122.228 24.0934 122.358 23.7777C122.489 23.462 122.543 23.1201 122.519 22.7794H122.545Z" fill="#505050"/>
<path d="M131.797 11.6662C132.983 11.6022 134.158 11.9247 135.147 12.5856C135.572 12.9315 135.906 13.3767 136.12 13.8822C136.334 14.3876 136.421 14.9379 136.373 15.4847V20.7663C136.387 21.0567 136.307 21.344 136.145 21.585C135.961 21.8029 135.732 21.979 135.475 22.1018C134.995 22.368 134.481 22.5668 133.947 22.6923C133.256 22.867 132.544 22.9505 131.83 22.9406C130.626 23.0113 129.43 22.7115 128.4 22.0816C127.999 21.8012 127.675 21.4231 127.459 20.9829C127.244 20.5427 127.143 20.0548 127.168 19.565C127.143 19.1325 127.218 18.7 127.386 18.3009C127.555 17.9019 127.812 17.5468 128.139 17.2631C128.943 16.6698 129.908 16.3331 130.906 16.2968L134.048 15.9813V15.4847C134.066 15.2043 134.015 14.9237 133.898 14.6683C133.781 14.4128 133.602 14.1906 133.378 14.0217C132.84 13.683 132.21 13.5211 131.576 13.5587C130.986 13.5557 130.399 13.6393 129.834 13.807C129.322 13.9573 128.822 14.148 128.34 14.3774C128.19 14.2553 128.063 14.1077 127.965 13.9412C127.858 13.7724 127.8 13.5773 127.797 13.3775C127.804 13.14 127.884 12.9103 128.025 12.7195C128.167 12.5286 128.363 12.3859 128.588 12.3104C129.055 12.1011 129.545 11.9501 130.048 11.8608C130.623 11.7382 131.209 11.673 131.797 11.6662ZM131.864 21.1018C132.334 21.1105 132.804 21.0517 133.257 20.9273C133.553 20.851 133.838 20.7406 134.108 20.5985V17.6725L131.596 17.9477C131.041 17.9526 130.498 18.1054 130.022 18.3906C129.846 18.5134 129.705 18.6788 129.611 18.8714C129.518 19.0639 129.474 19.2772 129.486 19.4912C129.48 19.7214 129.53 19.9496 129.633 20.1556C129.736 20.3616 129.888 20.5391 130.075 20.6723C130.614 20.9942 131.238 21.144 131.864 21.1018Z" fill="#505050"/>
<path d="M147.28 19.6722C147.3 20.1304 147.209 20.5866 147.014 21.0015C146.819 21.4165 146.527 21.7779 146.161 22.0546C145.201 22.6878 144.06 22.9894 142.912 22.9136C141.92 22.9501 140.933 22.7692 140.018 22.3834C139.261 22.0277 138.886 21.5848 138.886 21.0412C138.882 20.8216 138.94 20.6054 139.053 20.4171C139.168 20.2281 139.327 20.0693 139.516 19.954C139.98 20.2437 140.469 20.493 140.976 20.699C141.571 20.935 142.206 21.0513 142.845 21.0412C144.265 21.0412 144.976 20.5849 144.976 19.699C144.983 19.5259 144.955 19.353 144.893 19.1913C144.831 19.0296 144.736 18.8826 144.614 18.7595C144.297 18.4905 143.912 18.3141 143.502 18.2495L141.941 17.8401C141.105 17.687 140.327 17.3036 139.697 16.7328C139.211 16.2142 138.951 15.5239 138.973 14.8134C138.972 14.3791 139.073 13.9505 139.266 13.5616C139.459 13.1726 139.739 12.8338 140.085 12.572C140.991 11.9091 142.101 11.5882 143.22 11.666C143.857 11.6585 144.491 11.7306 145.11 11.8807C145.579 11.9867 146.02 12.1927 146.403 12.4847C146.54 12.583 146.653 12.7116 146.733 12.8605C146.813 13.0094 146.858 13.1747 146.865 13.3437C146.871 13.5628 146.815 13.779 146.704 13.9678C146.604 14.1378 146.463 14.2806 146.295 14.3839C146.064 14.2393 145.822 14.1115 145.572 14.0014C145.241 13.8573 144.898 13.7428 144.547 13.6591C144.156 13.5703 143.756 13.5253 143.354 13.5249C142.832 13.4982 142.311 13.6117 141.847 13.8538C141.677 13.9436 141.536 14.0792 141.439 14.2452C141.342 14.4112 141.293 14.601 141.298 14.7933C141.296 14.9355 141.323 15.0764 141.378 15.2079C141.432 15.3393 141.512 15.4585 141.613 15.5584C141.914 15.8183 142.284 15.986 142.678 16.0415L144.018 16.3838C144.945 16.5367 145.811 16.9484 146.516 17.5716C146.779 17.8518 146.982 18.1824 147.113 18.5434C147.245 18.9045 147.301 19.2885 147.28 19.6722Z" fill="#505050"/>
<path d="M148.847 21.4169C148.835 21.0231 148.976 20.6399 149.243 20.3499C149.535 20.0748 149.921 19.9216 150.321 19.9216C150.722 19.9216 151.108 20.0748 151.4 20.3499C151.651 20.6487 151.788 21.0265 151.788 21.4169C151.788 21.8074 151.651 22.1852 151.4 22.484C151.108 22.7591 150.722 22.9123 150.321 22.9123C149.921 22.9123 149.535 22.7591 149.243 22.484C148.976 22.1939 148.835 21.8108 148.847 21.4169Z" fill="#FF2E6D"/>
<path d="M156.223 17.9677L153.892 17.7865V7.8811L154.348 7.76702C154.547 7.72044 154.752 7.69791 154.957 7.69991C155.295 7.67125 155.633 7.75883 155.915 7.94821C156.027 8.05513 156.113 8.18634 156.167 8.33177C156.22 8.4772 156.239 8.63296 156.223 8.78709V17.9677ZM153.892 16.6255L156.223 16.8268V22.5647C156.086 22.6243 155.942 22.6672 155.795 22.6922C155.584 22.7282 155.371 22.7462 155.158 22.7459C154.822 22.771 154.488 22.6836 154.207 22.4976C154.095 22.3947 154.008 22.2673 153.954 22.1253C153.899 21.9832 153.878 21.8304 153.892 21.6789V16.6255Z" fill="#505050"/>
<path d="M161.884 17.2429H159.553V9.05549L160.002 8.94812C160.221 8.89619 160.446 8.8714 160.672 8.8743C161.004 8.84901 161.335 8.93905 161.609 9.12931C161.722 9.23561 161.809 9.36674 161.862 9.51234C161.916 9.65793 161.935 9.814 161.918 9.96819L161.884 17.2429ZM159.553 16.6121H161.884V19.5112C161.863 19.7289 161.895 19.9485 161.978 20.1508C162.061 20.3532 162.192 20.5322 162.36 20.6722C162.761 20.9194 163.229 21.0366 163.7 21.0078C163.976 21.0054 164.251 20.9671 164.517 20.8937C164.775 20.8368 165.025 20.7465 165.261 20.6252C165.375 20.7424 165.472 20.8758 165.549 21.0212C165.63 21.1858 165.672 21.3676 165.669 21.5513C165.664 21.7527 165.607 21.9493 165.502 22.1213C165.397 22.2933 165.249 22.4346 165.073 22.5312C164.519 22.8215 163.895 22.9539 163.271 22.9137C162.319 22.9571 161.379 22.6911 160.591 22.1553C160.236 21.8478 159.959 21.4594 159.784 21.0227C159.609 20.586 159.542 20.1138 159.586 19.6454L159.553 16.6121ZM160.893 14.0686V12.2097H165.401C165.473 12.3318 165.53 12.4626 165.569 12.5989C165.623 12.7657 165.65 12.9402 165.649 13.1156C165.668 13.3732 165.592 13.6288 165.435 13.8337C165.356 13.9129 165.262 13.9747 165.158 14.0152C165.054 14.0556 164.943 14.0738 164.832 14.0686H160.893Z" fill="#505050"/>
<path d="M41.6639 28.9066L41.7909 28.8328L41.6572 28.8999L41.6639 28.9066Z" fill="url(#paint0_linear_1188_10807)"/>
<g clip-path="url(#clip0_1188_10807)">
<path fill-rule="evenodd" clip-rule="evenodd" d="M2.59107 32.2508L8.34611 35.5824C9.12697 36.0348 10.0127 36.2729 10.9144 36.2729C11.8161 36.2729 12.7018 36.0348 13.4827 35.5824L30.1359 25.9339C30.9163 25.4803 31.5642 24.8286 32.0144 24.0443C32.4646 23.2601 32.7014 22.3708 32.7009 21.4657V14.8026C32.7009 13.8985 32.4639 13.0103 32.0137 12.2272C31.5634 11.4441 30.9158 10.7936 30.1359 10.3409L29.8885 10.1972L29.7843 10.1384L29.8755 10.2168C30.088 10.4019 30.2665 10.623 30.4028 10.8701C30.5742 11.1676 30.6854 11.4962 30.7301 11.837C30.7748 12.1777 30.752 12.524 30.6631 12.8559C30.5742 13.1879 30.421 13.4989 30.2121 13.7713C30.0032 14.0437 29.7428 14.2721 29.4458 14.4433L3.89312 29.2328C3.59695 29.4051 3.26984 29.5171 2.9305 29.5624C2.59116 29.6077 2.24624 29.5855 1.91549 29.4969C1.58473 29.4083 1.27463 29.2551 1.00292 29.0462C0.731212 28.8372 0.503231 28.5766 0.33202 28.2791C0.215575 28.0737 0.125872 27.8542 0.0651027 27.6259C0.0651027 27.5475 0.0651029 27.4756 0.0195312 27.3972V27.7826C0.0197141 28.6883 0.257444 29.578 0.708834 30.3624C1.16023 31.1467 1.80938 31.798 2.59107 32.2508Z" fill="url(#paint1_linear_1188_10807)"/>
<path fill-rule="evenodd" clip-rule="evenodd" d="M8.32691 0.692531L2.5914 4.03062C1.80415 4.47826 1.14873 5.12663 0.691444 5.9101C0.234162 6.69358 -0.00874518 7.58436 -0.0126953 8.4923V27.7827C-0.00856276 28.6915 0.234358 29.5831 0.691563 30.3676C1.14877 31.1521 1.80408 31.8017 2.5914 32.2509L8.34644 35.5825C9.12729 36.0348 10.0131 36.273 10.9147 36.273C11.8164 36.273 12.7022 36.0348 13.483 35.5825L13.7239 35.4453L13.8346 35.3799L13.7174 35.4257C13.4549 35.5129 13.1801 35.5571 12.9036 35.5563C12.2129 35.5563 11.5506 35.281 11.0622 34.791C10.5739 34.301 10.2995 33.6363 10.2995 32.9433V3.33165C10.2995 2.63864 10.5739 1.97402 11.0622 1.48399C11.5506 0.993958 12.2129 0.718661 12.9036 0.718661C13.1366 0.719307 13.3685 0.750044 13.5937 0.810116L13.815 0.881973L13.6262 0.777454L13.483 0.692531C12.6998 0.236515 11.8104 -0.00366211 10.905 -0.00366211C9.99947 -0.00366211 9.11008 0.236515 8.32691 0.692531Z" fill="url(#paint2_linear_1188_10807)"/>
<path fill-rule="evenodd" clip-rule="evenodd" d="M32.6817 21.4721V14.8025C32.681 13.8985 32.4437 13.0106 31.9936 12.2276C31.5434 11.4446 30.8962 10.7939 30.1167 10.3408L13.4635 0.69234C12.6814 0.240037 11.7946 0.00195312 10.8919 0.00195313C9.98928 0.00195312 9.10247 0.240037 8.32041 0.69234L2.5914 4.03043C1.80415 4.47807 1.14873 5.12643 0.691444 5.90991C0.234162 6.69339 -0.00874518 7.58417 -0.0126953 8.49211V8.89712V8.77954C0.0412023 8.50587 0.140212 8.24315 0.280263 8.00217C0.451414 7.6977 0.68171 7.43079 0.957512 7.21723C1.23331 7.00367 1.54902 6.84782 1.88593 6.75888C2.22284 6.66995 2.5741 6.64976 2.91893 6.69949C3.26376 6.74923 3.59514 6.86788 3.89344 7.04843L29.4266 21.8641C30.0246 22.2099 30.4614 22.7799 30.6408 23.4487C30.8203 24.1175 30.7277 24.8304 30.3836 25.4308C30.2643 25.6316 30.1223 25.8179 29.9604 25.9861C29.9051 26.0419 29.8464 26.0943 29.7846 26.1428L29.9734 26.0318L30.1167 25.9534C30.8991 25.4986 31.5481 24.8449 31.9985 24.0581C32.4488 23.2714 32.6845 22.3794 32.6817 21.4721Z" fill="url(#paint3_linear_1188_10807)"/>
</g>
<defs>
<linearGradient id="paint0_linear_1188_10807" x1="41.6572" y1="28.8462" x2="41.7909" y2="28.8462" gradientUnits="userSpaceOnUse">
<stop stop-color="#FFB31F"/>
<stop offset="1" stop-color="#FF08F5"/>
</linearGradient>
<linearGradient id="paint1_linear_1188_10807" x1="10.2916" y1="35.9544" x2="36.6567" y2="7.22591" gradientUnits="userSpaceOnUse">
<stop stop-color="#EE4570"/>
<stop offset="1" stop-color="#C1036A"/>
</linearGradient>
<linearGradient id="paint2_linear_1188_10807" x1="2.67609" y1="-0.00366266" x2="25.0275" y2="14.1702" gradientUnits="userSpaceOnUse">
<stop stop-color="#DD0568"/>
<stop offset="1" stop-color="#FF3E61"/>
</linearGradient>
<linearGradient id="paint3_linear_1188_10807" x1="6.33574" y1="0.00195273" x2="20.252" y2="28.9169" gradientUnits="userSpaceOnUse">
<stop stop-color="#FF1681"/>
<stop offset="1" stop-color="#FF4668"/>
</linearGradient>
<clipPath id="clip0_1188_10807">
<rect width="32.6879" height="36.2748" fill="white"/>
</clipPath>
</defs>
</svg>
