<svg width="41" height="40" viewBox="0 0 41 40" fill="none" xmlns="http://www.w3.org/2000/svg">
<path d="M24.4006 32.1901H22.8535V37.2794C22.8509 37.4154 22.8409 37.5511 22.8234 37.686C22.8215 37.7493 22.8071 37.8115 22.7811 37.8693C22.7552 37.927 22.7181 37.979 22.6721 38.0223C22.626 38.0657 22.5719 38.0995 22.5129 38.1219C22.4538 38.1443 22.3909 38.1548 22.3277 38.1528C22.2028 38.1707 22.0757 38.1402 21.9724 38.0674C21.8692 37.9947 21.7975 37.8852 21.772 37.7613C21.7298 37.5991 21.7096 37.432 21.7119 37.2644V32.1901C21.066 32.1449 21.051 31.6932 21.051 31.1963C21.066 30.3079 21.051 29.4195 21.051 28.5161C21.066 27.1459 21.6067 26.3177 22.8835 25.8058L26.879 24.2097C27.6451 23.9085 27.6601 23.8031 27.7202 22.99C27.7803 22.1769 27.57 21.8758 26.9692 21.4391C25.5121 20.3851 24.686 18.9246 24.4607 17.1177C24.4632 17.009 24.433 16.902 24.3741 16.8107C24.3152 16.7194 24.2302 16.648 24.1302 16.6057C23.814 16.4766 23.5434 16.2557 23.3534 15.9713C23.1634 15.6868 23.0625 15.352 23.0638 15.0097C23.0487 13.79 23.0037 12.5704 23.1389 11.3658C23.3792 9.00179 24.5358 7.11963 26.4885 5.76447C26.849 5.50849 27.0593 5.31275 27.0893 4.78574C27.1494 3.28001 28.1258 2.39163 29.4776 1.93991C30.8295 1.48819 32.2715 1.60865 33.5032 2.49704C34.3744 3.12944 34.8851 3.97265 34.8251 5.08689C34.8148 5.17772 34.8323 5.26952 34.8752 5.35018C34.9181 5.43083 34.9844 5.49653 35.0654 5.53861C36.7039 6.53257 37.9183 8.09843 38.4751 9.93535C38.8657 11.155 38.8657 12.4047 38.8056 13.6545C38.8056 13.9406 38.6103 14.1062 38.3249 14.1363C38.0395 14.1664 37.7842 14.0309 37.7541 13.7147C37.7042 13.3203 37.6841 12.9227 37.694 12.5252C37.7091 11.5766 37.6039 10.643 37.2284 9.76971C36.222 7.42077 34.4646 5.97527 31.926 5.56873C30.2487 5.31349 28.5372 5.70421 27.1356 6.66232C25.7339 7.62044 24.7461 9.07493 24.3706 10.7334C24.2053 11.5164 24.1903 12.3144 24.1152 13.0823C25.8126 13.1727 26.8039 12.2542 27.585 10.9894C27.6601 10.8689 27.7202 10.7484 27.8103 10.628C27.9005 10.5075 28.321 10.2515 28.5914 10.4624C29.9733 11.5013 31.6106 11.7723 33.2329 12.1187C33.8337 12.2542 34.4495 12.4198 35.0353 12.6155C36.973 13.263 37.5588 14.7085 37.4837 16.4552C37.3936 18.789 36.3271 20.5959 34.3594 21.8758C34.311 21.9046 34.2697 21.9438 34.2385 21.9908C34.2073 22.0377 34.187 22.091 34.1792 22.1468C34.1566 22.538 34.1566 22.9301 34.1792 23.3213C34.1942 23.7429 34.4345 23.9838 34.8251 24.1344L38.9558 25.7907C40.2776 26.3177 40.8334 27.1308 40.8334 28.5462V31.2866C40.8334 31.9341 40.7733 32.0094 40.1574 32.2202V35.4725C40.1574 36.1501 40.1725 36.8277 40.1574 37.5053C40.1574 37.9118 39.9321 38.1678 39.6017 38.1678C39.2712 38.1678 39.0459 37.8968 39.0309 37.4902V32.1901H37.5138V37.5655C37.4687 37.9269 37.2434 38.1528 36.943 38.1678C36.6426 38.1829 36.3872 37.9269 36.3872 37.5354V30.323C36.3872 29.9616 36.6125 29.7207 36.913 29.7056C37.2134 29.6905 37.4687 29.9315 37.5138 30.2928V30.6693C37.5138 30.7747 37.5288 30.8951 37.5288 31.0156H39.6768C39.6942 30.9262 39.7043 30.8356 39.7068 30.7446V28.4107C39.7068 27.703 39.3914 27.191 38.7154 26.92L35.501 25.6251C35.2306 25.5046 35.1705 25.6552 35.0654 25.8208C34.163 27.2707 32.9135 28.4715 31.4304 29.3141C31.2894 29.4055 31.1251 29.4541 30.9572 29.4541C30.7893 29.4541 30.625 29.4055 30.484 29.3141C28.9973 28.4951 27.7495 27.3014 26.864 25.8509C26.6988 25.595 26.5636 25.5498 26.2632 25.6702L23.3191 26.8598C22.493 27.191 22.1925 27.6126 22.1925 28.5161V31.0156H24.4006C24.4006 30.7747 24.3856 30.5337 24.4006 30.3079C24.4156 30.082 24.6259 29.7056 24.9414 29.7056C25.2568 29.7056 25.4821 29.9164 25.5121 30.2778C25.5251 30.3776 25.5301 30.4783 25.5272 30.5789V37.2945C25.5321 37.4357 25.5221 37.577 25.4971 37.7161C25.4749 37.8478 25.4036 37.9662 25.2977 38.0473C25.1917 38.1284 25.059 38.1661 24.9263 38.1528C24.7869 38.1528 24.6532 38.0972 24.5546 37.9984C24.456 37.8996 24.4006 37.7655 24.4006 37.6257C24.3931 37.5104 24.3931 37.3947 24.4006 37.2794V32.1901V32.1901ZM28.4863 11.7573C28.4562 11.7874 28.4262 11.7874 28.4112 11.8175C28.3961 11.8476 28.1558 12.1488 28.0356 12.3295C27.2395 13.3082 26.3233 14.0761 24.9864 14.1514C24.5058 14.1815 24.2053 14.4977 24.1903 14.9043C24.1753 15.3108 24.4457 15.5668 24.8963 15.6722C25.3469 15.7776 25.5122 15.9282 25.5272 16.41C25.5577 17.727 26.0711 18.9867 26.9692 19.9485C28.5013 21.665 31.16 22.1769 33.2479 21.1832C35.3358 20.1894 36.6726 17.8103 36.3121 15.5216C36.207 14.8139 35.8765 14.2267 35.2006 13.9406C34.6099 13.6788 33.9965 13.4722 33.368 13.3232C31.6857 12.9318 29.9733 12.6908 28.4863 11.7573V11.7573ZM28.8167 22.4781C28.9219 23.5773 28.8318 24.5711 27.7052 25.0981C28.5313 26.3478 29.4626 27.3868 30.6943 28.1246C30.7995 28.1848 30.9948 28.245 31.0849 28.1848C32.3767 27.447 33.353 26.3779 34.1792 25.0981C33.6985 24.8571 33.308 24.5259 33.1878 24.0139C33.0863 23.5169 33.016 23.014 32.9775 22.5082C31.6216 22.9349 30.1663 22.9244 28.8167 22.4781V22.4781ZM28.261 4.81586C30.0152 4.18845 31.9327 4.19377 33.6835 4.83092C33.5483 3.50587 32.1964 2.69278 30.454 2.85841C29.2373 2.97887 28.1708 3.91242 28.261 4.81586Z" fill="#FF2E6D"/>
<path d="M16.9653 18.9261C17.1756 19.1218 17.4309 19.2724 17.5661 19.4982C17.8515 20.0403 18.2721 20.2963 18.8579 20.4469C19.7892 20.6878 20.7205 20.9889 21.6518 21.275C22.583 21.5611 23.5143 22.6001 23.5143 23.6842C23.4993 24.0154 23.3641 24.2413 23.0337 24.2865C22.9589 24.3018 22.8816 24.3007 22.8073 24.2831C22.733 24.2655 22.6634 24.2319 22.6034 24.1846C22.5433 24.1373 22.4943 24.0775 22.4596 24.0092C22.425 23.941 22.4056 23.8661 22.4028 23.7896C22.3277 22.8861 21.7869 22.4645 20.9758 22.2537C20.1647 22.0429 19.6089 21.8472 18.963 21.6514L16.6498 24.5575C15.9889 25.3706 15.3881 25.4459 14.5619 24.8285L13.5255 24.0606V37.296C13.5255 37.8983 13.3452 38.1693 12.9547 38.1693C12.5642 38.1693 12.3989 37.8682 12.3989 37.296V24.0757L11.3775 24.8285C10.5514 25.4459 9.92049 25.3706 9.28962 24.5575L7.38197 22.1784L7.00645 21.6364C6.13525 21.9074 5.24902 22.1333 4.39283 22.4645C3.792 22.6904 3.53664 23.2325 3.53664 23.8799V37.3261C3.54692 37.4517 3.54187 37.5781 3.52162 37.7025C3.50648 37.8358 3.43977 37.9578 3.33584 38.0423C3.23191 38.1267 3.09906 38.167 2.96585 38.1543C2.83596 38.1593 2.7088 38.1159 2.60893 38.0325C2.50907 37.9491 2.44358 37.8315 2.4251 37.7025C2.4123 37.5775 2.40729 37.4518 2.41008 37.3261V23.9552C2.41008 22.5398 3.05598 21.6514 4.42287 21.2298C5.33914 20.9437 6.27043 20.6426 7.21675 20.4017C7.44704 20.3581 7.6643 20.2621 7.85179 20.1212C8.03929 19.9802 8.19202 19.798 8.29824 19.5886C8.44845 19.2874 8.64372 19.0014 9.04929 19.0164C9.15443 18.5045 9.03426 18.1581 8.6287 17.8118C7.40322 16.7663 6.62382 15.2899 6.45068 13.6861C6.4395 13.6119 6.41217 13.5411 6.37064 13.4786C6.32911 13.4162 6.27439 13.3636 6.21035 13.3247C4.99366 12.6923 4.72329 11.3522 5.57947 10.2982C5.67584 10.1731 5.72861 10.0197 5.72968 9.86157C5.7447 8.77744 5.72968 7.69331 5.75973 6.59413C5.83483 4.23013 7.81758 1.7005 11.0621 1.67039C12.7594 1.67039 14.4568 1.65533 16.1541 1.67039C17.3708 1.68545 18.257 2.24257 18.7077 3.40198C18.7615 3.52507 18.8439 3.63349 18.948 3.71818C19.3408 4.02441 19.6577 4.41748 19.874 4.86673C20.0902 5.31598 20.2 5.80925 20.1947 6.30804C20.2098 7.49757 20.1947 8.6871 20.2098 9.87662C20.2119 10.0462 20.27 10.2104 20.375 10.3434C20.5661 10.5608 20.7046 10.8195 20.7796 11.0994C20.8546 11.3793 20.8641 11.6727 20.8074 11.9569C20.7507 12.2411 20.6294 12.5083 20.4527 12.7377C20.2761 12.9671 20.049 13.1526 19.7892 13.2796C19.6974 13.3119 19.6172 13.3705 19.5585 13.4481C19.4997 13.5257 19.465 13.619 19.4587 13.7162C19.2927 15.3027 18.5234 16.764 17.3107 17.7968C16.9052 18.1581 16.785 18.4894 16.9653 18.9261ZM6.87127 9.69593H7.50214C7.77251 9.72605 7.87766 9.62065 7.9077 9.34962C7.98281 8.83767 8.10297 8.34078 8.20812 7.84389C8.41841 6.77482 8.97418 6.41344 10.0256 6.66941C11.6087 7.05753 13.2532 7.12409 14.8623 6.86516C15.4782 6.75976 16.064 6.54896 16.6799 6.4285C16.9008 6.38552 17.1298 6.42289 17.3258 6.5339C17.394 6.60132 17.4437 6.68527 17.47 6.77761C17.4963 6.86994 17.4984 6.96753 17.476 7.0609C17.3644 7.25817 17.1898 7.41199 16.9803 7.49757C14.9975 8.20526 12.9697 8.26549 10.9119 7.99446C10.4162 7.91917 9.92049 7.81377 9.39476 7.70837C9.28962 8.22032 9.16945 8.68709 9.09435 9.16893C8.9141 10.4639 8.49352 10.9005 7.1116 10.8252C6.58587 10.8102 6.27043 11.0812 6.22537 11.4878C6.18031 11.8943 6.42064 12.2256 6.96139 12.346C7.50214 12.4665 7.53218 12.6171 7.53218 13.0085C7.53218 13.1591 7.56222 13.3097 7.57724 13.4603C7.71446 14.8324 8.36681 16.101 9.40216 17.009C10.4375 17.9171 11.7785 18.3967 13.1534 18.3508C14.5283 18.3048 15.8344 17.7367 16.8071 16.7616C17.7798 15.7865 18.3465 14.4771 18.3922 13.0989C18.4073 12.5719 18.5274 12.4364 19.0381 12.346C19.1926 12.3256 19.3372 12.2584 19.4526 12.1535C19.568 12.0486 19.6487 11.9109 19.684 11.7588C19.7303 11.6151 19.7274 11.46 19.6757 11.3181C19.624 11.1762 19.5264 11.0558 19.3986 10.9758C19.2793 10.8934 19.1852 10.7793 19.1268 10.6464C19.0685 10.5134 19.0482 10.3668 19.0682 10.2229C19.0682 8.98824 19.0532 7.75354 19.0682 6.50379C19.0832 5.66058 18.7828 4.98299 18.0768 4.4861C17.9017 4.35223 17.7708 4.16858 17.7013 3.9591C17.4159 3.16106 16.9803 2.81475 16.1541 2.81475C14.4418 2.79969 12.7444 2.78463 11.0471 2.81475C8.97418 2.8298 7.33691 4.15484 6.96139 6.14241C6.84123 6.78987 6.88629 7.46745 6.87127 8.12998C6.85625 8.7925 6.87127 9.13881 6.87127 9.69593ZM12.9697 22.1935L15.2829 20.2511C15.7636 19.8596 15.8537 19.5434 15.6584 18.911C13.8559 19.6789 12.0534 19.6789 10.2059 18.8809C10.1949 19.1068 10.1999 19.3333 10.2209 19.5585C10.2181 19.7289 10.2768 19.8947 10.3861 20.0253C11.2273 20.748 12.0835 21.4557 12.9697 22.1935ZM9.09435 20.4318L8.34331 21.5611L10.251 23.9552C10.2918 23.99 10.3408 24.0138 10.3934 24.0243C10.4459 24.0349 10.5003 24.0318 10.5514 24.0154C11.0621 23.6691 11.5427 23.2927 12.0534 22.9012L9.09435 20.4318ZM16.8451 20.4318L13.871 22.9012C14.4418 23.3228 14.9675 23.7294 15.5383 24.1359L17.5961 21.5611L16.8451 20.4318Z" fill="#FF2E6D"/>
<path d="M18.3923 32.2526C18.3923 30.5662 18.3923 28.8798 18.4073 27.1933C18.3954 26.9822 18.4314 26.7712 18.5125 26.576C18.918 25.7328 19.3386 24.9197 19.7442 24.0915C19.8794 23.8356 20.0897 23.6248 20.36 23.7302C20.5683 23.8138 20.7355 23.976 20.8257 24.1819C20.8858 24.3174 20.7806 24.5432 20.6905 24.7089C20.36 25.4015 19.9995 26.0942 19.6691 26.7868C19.5799 26.975 19.5337 27.1807 19.5339 27.3891C19.5189 30.6866 19.5189 33.9691 19.5189 37.2667C19.5263 37.3669 19.5263 37.4676 19.5189 37.5678C19.523 37.7211 19.4672 37.8699 19.3633 37.9824C19.2595 38.0949 19.1158 38.1623 18.9631 38.1701C18.6477 38.1701 18.4223 37.9292 18.3923 37.5528V32.2526V32.2526Z" fill="#FF2E6D"/>
<path d="M7.53214 32.2673V37.2965C7.53493 37.4221 7.52992 37.5478 7.51712 37.6729C7.48707 37.974 7.27678 38.1698 7.02143 38.1397C6.80321 38.0989 6.60933 37.9747 6.48068 37.7933C6.37553 37.6729 6.40557 37.4621 6.40557 37.2814C6.39055 33.9989 6.40558 30.7014 6.39056 27.4038C6.38752 27.1683 6.33101 26.9366 6.22533 26.7262C5.92491 26.0637 5.57943 25.4012 5.24897 24.7387C5.20782 24.6664 5.17265 24.5908 5.14383 24.5128C5.03868 24.1966 5.09877 23.9406 5.38416 23.7599C5.44875 23.7239 5.52001 23.7016 5.59354 23.6943C5.66707 23.687 5.74132 23.6949 5.8117 23.7174C5.88208 23.74 5.94709 23.7768 6.00273 23.8256C6.05837 23.8743 6.10346 23.934 6.1352 24.0009C6.60085 24.8892 7.03645 25.8077 7.48708 26.7112C7.53327 26.8673 7.54858 27.031 7.53214 27.193V32.2673Z" fill="#FF2E6D"/>
</svg>
