<svg width="24" height="24" viewBox="0 0 24 24" fill="currentColor" xmlns="http://www.w3.org/2000/svg">
<path fill-rule="evenodd" clip-rule="evenodd" d="M14.136 1.19988C12.8649 0.266707 11.1351 0.266706 9.86399 1.19988L8.48866 2.20955C8.21462 2.41073 7.89603 2.5427 7.56 2.59422L5.87355 2.85278C4.31488 3.09174 3.09174 4.31487 2.85278 5.87355L2.59422 7.56C2.5427 7.89603 2.41073 8.21463 2.20955 8.48866L1.19988 9.86399C0.266707 11.1351 0.266706 12.8649 1.19988 14.136L2.20955 15.5113C2.41073 15.7854 2.5427 16.104 2.59422 16.44L2.85278 18.1265C3.09174 19.6851 4.31487 20.9083 5.87355 21.1472L7.56 21.4058C7.89603 21.4573 8.21462 21.5893 8.48866 21.7904L9.86399 22.8001C11.1351 23.7333 12.8649 23.7333 14.136 22.8001L15.5113 21.7904C15.7854 21.5893 16.104 21.4573 16.44 21.4058L18.1265 21.1472C19.6851 20.9083 20.9083 19.6851 21.1472 18.1265L21.4058 16.44C21.4573 16.104 21.5893 15.7854 21.7904 15.5113L22.8001 14.136C23.7333 12.8649 23.7333 11.1351 22.8001 9.86399L21.7904 8.48866C21.5893 8.21463 21.4573 7.89603 21.4058 7.56L21.1472 5.87355C20.9083 4.31488 19.6851 3.09174 18.1265 2.85278L16.44 2.59422C16.104 2.5427 15.7854 2.41073 15.5113 2.20955L14.136 1.19988ZM10.7517 2.40903C11.4945 1.86366 12.5055 1.86366 13.2483 2.40903L14.6237 3.4187C15.0926 3.76293 15.6377 3.98874 16.2127 4.07689L17.8991 4.33545C18.8101 4.47511 19.5249 5.18994 19.6645 6.10087L19.9231 7.78732C20.0113 8.36229 20.2371 8.90744 20.5813 9.37633L21.591 10.7517C22.1363 11.4945 22.1363 12.5055 21.591 13.2483L20.5813 14.6237C20.2371 15.0926 20.0113 15.6377 19.9231 16.2127L19.6645 17.8991C19.5249 18.8101 18.8101 19.5249 17.8991 19.6645L16.2127 19.9231C15.6377 20.0113 15.0926 20.2371 14.6237 20.5813L13.2483 21.591C12.5055 22.1363 11.4945 22.1363 10.7517 21.591L9.37633 20.5813C8.90744 20.2371 8.36229 20.0113 7.78732 19.9231L6.10087 19.6645C5.18994 19.5249 4.47511 18.8101 4.33545 17.8991L4.07689 16.2127C3.98874 15.6377 3.76293 15.0926 3.4187 14.6237L2.40903 13.2483C1.86366 12.5055 1.86366 11.4945 2.40903 10.7517L3.4187 9.37633C3.76293 8.90744 3.98874 8.36229 4.07689 7.78732L4.33545 6.10087C4.47511 5.18994 5.18994 4.47511 6.10087 4.33545L7.78732 4.07689C8.36229 3.98874 8.90744 3.76293 9.37633 3.4187L10.7517 2.40903Z" fill="currentColor"/>
<path d="M11.025 9.88977C11.025 10.5398 10.82 11.0598 10.41 11.4498C10 11.8298 9.50001 12.0198 8.91001 12.0198C8.32001 12.0198 7.82001 11.8298 7.41001 11.4498C7.00001 11.0598 6.79501 10.5398 6.79501 9.88977C6.79501 9.23977 7.00001 8.72477 7.41001 8.34477C7.82001 7.95477 8.32001 7.75977 8.91001 7.75977C9.50001 7.75977 10 7.95477 10.41 8.34477C10.82 8.72477 11.025 9.23977 11.025 9.88977ZM7.86001 9.88977C7.86001 10.2798 7.95501 10.5848 8.14501 10.8048C8.34501 11.0148 8.60001 11.1198 8.91001 11.1198C9.22001 11.1198 9.47001 11.0148 9.66001 10.8048C9.86001 10.5848 9.96001 10.2798 9.96001 9.88977C9.96001 9.49977 9.86001 9.19977 9.66001 8.98977C9.47001 8.76977 9.22001 8.65977 8.91001 8.65977C8.60001 8.65977 8.34501 8.76977 8.14501 8.98977C7.95501 9.19977 7.86001 9.49977 7.86001 9.88977ZM8.79001 16.0248L14.31 7.75977C14.54 7.78977 14.72 7.84977 14.85 7.93977C14.99 8.01977 15.06 8.12977 15.06 8.26977C15.06 8.36977 15.04 8.46977 15 8.56977C14.96 8.65977 14.9 8.75977 14.82 8.86977L9.31501 17.1048C9.09501 17.0848 8.91501 17.0248 8.77501 16.9248C8.63501 16.8248 8.56501 16.7098 8.56501 16.5798C8.56501 16.4998 8.58501 16.4148 8.62501 16.3248C8.66501 16.2348 8.72001 16.1348 8.79001 16.0248ZM16.785 14.9748C16.785 15.6348 16.58 16.1598 16.17 16.5498C15.76 16.9298 15.26 17.1198 14.67 17.1198C14.09 17.1198 13.59 16.9298 13.17 16.5498C12.76 16.1598 12.555 15.6348 12.555 14.9748C12.555 14.3248 12.76 13.8098 13.17 13.4298C13.59 13.0498 14.09 12.8598 14.67 12.8598C15.26 12.8598 15.76 13.0498 16.17 13.4298C16.58 13.8098 16.785 14.3248 16.785 14.9748ZM13.62 14.9748C13.62 15.3748 13.715 15.6848 13.905 15.9048C14.105 16.1148 14.36 16.2198 14.67 16.2198C14.98 16.2198 15.23 16.1148 15.42 15.9048C15.62 15.6848 15.72 15.3748 15.72 14.9748C15.72 14.5948 15.62 14.2998 15.42 14.0898C15.23 13.8698 14.98 13.7598 14.67 13.7598C14.36 13.7598 14.105 13.8698 13.905 14.0898C13.715 14.2998 13.62 14.5948 13.62 14.9748Z" fill="currentColor"/>
</svg>
