<svg width="16" height="16" viewBox="0 0 16 16" fill="currentColor" xmlns="http://www.w3.org/2000/svg">
<path fill-rule="evenodd" clip-rule="evenodd" d="M7.99935 0.666504C3.94926 0.666504 0.666016 3.94975 0.666016 7.99984C0.666016 12.0499 3.94926 15.3332 7.99935 15.3332C12.0494 15.3332 15.3327 12.0499 15.3327 7.99984C15.3327 3.94975 12.0494 0.666504 7.99935 0.666504ZM1.67464 7.6665H4.83818C4.90503 5.64195 5.57094 4.00628 6.2335 2.86393C6.49349 2.41567 6.75382 2.04183 6.97905 1.74826C4.07328 2.21887 1.83019 4.66656 1.67464 7.6665ZM4.85473 8.6665H1.70068C1.99846 11.513 4.18167 13.7984 6.97904 14.2514C6.75381 13.9578 6.49348 13.584 6.2335 13.1358C5.60769 12.0568 4.9789 10.5377 4.85473 8.6665ZM5.8572 8.6665H10.1415C10.0195 10.3193 9.46128 11.6666 8.90017 12.634C8.58296 13.1809 8.26636 13.6037 8.031 13.8877L7.99935 13.9257L7.96769 13.8877C7.73234 13.6037 7.41574 13.1809 7.09853 12.634C6.53742 11.6666 5.97921 10.3194 5.8572 8.6665ZM10.1599 7.6665H5.83879C5.90508 5.86096 6.50016 4.39733 7.09853 3.36564C7.41574 2.81874 7.73234 2.396 7.96769 2.11196L7.99935 2.074L8.031 2.11196C8.26636 2.396 8.58296 2.81874 8.90017 3.36564C9.49854 4.39733 10.0936 5.86096 10.1599 7.6665ZM11.144 8.6665C11.0198 10.5377 10.391 12.0568 9.7652 13.1358C9.50521 13.584 9.24489 13.9578 9.01966 14.2514C11.817 13.7984 14.0002 11.513 14.298 8.6665H11.144ZM14.3241 7.6665H11.1605C11.0937 5.64195 10.4278 4.00628 9.7652 2.86393C9.50521 2.41567 9.24488 2.04183 9.01965 1.74826C11.9254 2.21887 14.1685 4.66656 14.3241 7.6665Z" fill="currentColor"/>
</svg>
