<svg width="28" height="28" viewBox="0 0 28 28" fill="currentColor" xmlns="http://www.w3.org/2000/svg">
    <path fill-rule="evenodd" clip-rule="evenodd" d="M9.31944 26.0727L13.8497 22.6125L18.3801 26.0727C18.7957 26.3901 19.2889 26.5576 19.8073 26.5576C20.4139 26.5576 20.9909 26.3276 21.4325 25.9096C21.6605 25.6938 21.84 25.4394 21.9662 25.1532C22.0988 24.8528 22.166 24.5324 22.166 24.2004L22.166 3.52271C22.166 2.22375 21.1091 1.16675 19.8101 1.16675L7.88937 1.16675C6.59037 1.16675 5.5334 2.22371 5.5334 3.52271L5.5334 24.2003C5.5334 24.5324 5.60069 24.8528 5.73324 25.1533C5.85943 25.4394 6.03891 25.6937 6.26687 25.9095C6.70857 26.3275 7.28555 26.5575 7.89217 26.5575C8.41062 26.5575 8.90382 26.3901 9.31944 26.0727Z" fill="currentColor"/>
</svg>
