<svg width="28" height="29" fill="currentColor" xmlns="http://www.w3.org/2000/svg"><path fill-rule="evenodd" clip-rule="evenodd" d="m9.32 26.572 4.53-3.46 4.53 3.46a2.355 2.355 0 0 0 3.786-1.872V4.022a2.359 2.359 0 0 0-2.356-2.356H7.89a2.359 2.359 0 0 0-2.357 2.356V24.7a2.345 2.345 0 0 0 .734 1.71 2.355 2.355 0 0 0 3.052.162Zm4.206-5.211-5.17 3.949a.768.768 0 0 1-1.233-.61L7.121 4.022c0-.423.344-.767.767-.767H19.81c.424 0 .767.344.767.767V24.7a.768.768 0 0 1-1.233.61l-5.17-3.95a.533.533 0 0 0-.648 0Z"/></svg>