<svg width="16" height="11" viewBox="0 0 16 11" fill="none" xmlns="http://www.w3.org/2000/svg">
<path d="M1.16176 10.375C0.796282 10.375 0.5 10.1232 0.5 9.8125C0.5 9.50184 0.796282 9.25 1.16176 9.25H14.8382C15.2037 9.25 15.5 9.50184 15.5 9.8125C15.5 10.1232 15.2037 10.375 14.8382 10.375H1.16176Z" fill="white"/>
<path d="M1.16176 5.875C0.796282 5.875 0.5 5.62316 0.5 5.3125C0.5 5.00184 0.796282 4.75 1.16176 4.75H14.8382C15.2037 4.75 15.5 5.00184 15.5 5.3125C15.5 5.62316 15.2037 5.875 14.8382 5.875H1.16176Z" fill="white"/>
<path d="M1.16176 1.375C0.796282 1.375 0.5 1.12316 0.5 0.8125C0.5 0.50184 0.796282 0.25 1.16176 0.25H14.8382C15.2037 0.25 15.5 0.50184 15.5 0.8125C15.5 1.12316 15.2037 1.375 14.8382 1.375H1.16176Z" fill="white"/>
</svg>
