<svg width="24" height="25" viewBox="0 0 24 25" fill="currentColor" xmlns="http://www.w3.org/2000/svg">
<path fill-rule="evenodd" clip-rule="evenodd" d="M6.01153 13.9828L4.41463 5.19981L1.99883 5.1998C1.61223 5.1998 1.29883 4.8864 1.29883 4.4998C1.29883 4.11321 1.61223 3.7998 1.99883 3.7998H4.16425C4.98584 3.7998 5.68986 4.38737 5.83683 5.1957L7.38895 13.7324C7.50134 14.3505 8.03971 14.7998 8.66798 14.7998L19.4523 14.7998L21.1023 8.19981H9.99883C9.61223 8.19981 9.29883 7.8864 9.29883 7.49981C9.29883 7.11321 9.61223 6.79981 9.99883 6.79981H20.7181C21.824 6.79981 22.6355 7.83917 22.3673 8.91212L20.8673 14.9121C20.6781 15.6689 19.9981 16.1998 19.2181 16.1998L8.66798 16.1998C7.36311 16.1998 6.24496 15.2666 6.01153 13.9828ZM11.6993 19.4998C11.6993 20.4387 10.9382 21.1998 9.99931 21.1998C9.06043 21.1998 8.29931 20.4387 8.29931 19.4998C8.29931 18.5609 9.06043 17.7998 9.99931 17.7998C10.9382 17.7998 11.6993 18.5609 11.6993 19.4998ZM18.6993 19.4998C18.6993 20.4387 17.9382 21.1998 16.9993 21.1998C16.0604 21.1998 15.2993 20.4387 15.2993 19.4998C15.2993 18.5609 16.0604 17.7998 16.9993 17.7998C17.9382 17.7998 18.6993 18.5609 18.6993 19.4998Z" fill="currentColor"/>
</svg>
