<svg width="16" height="16" viewBox="0 0 16 16" fill="currentColor" xmlns="http://www.w3.org/2000/svg">
<path fill-rule="evenodd" clip-rule="evenodd" d="M3.97434 1.67522C4.06167 1.93719 3.92009 2.22035 3.65811 2.30767L3.11396 2.48906C3.0459 2.51174 3 2.57543 3 2.64717V14.1667C3 14.2587 3.07462 14.3333 3.16667 14.3333H12.8333C12.9254 14.3333 13 14.2587 13 14.1667V2.64717C13 2.57543 12.9541 2.51174 12.886 2.48906L12.3419 2.30767C12.0799 2.22035 11.9383 1.93719 12.0257 1.67522C12.113 1.41325 12.3961 1.27167 12.6581 1.35899L13.2023 1.54038C13.6787 1.69918 14 2.145 14 2.64717V14.1667C14 14.811 13.4777 15.3333 12.8333 15.3333H3.16667C2.52233 15.3333 2 14.811 2 14.1667V2.64717C2 2.145 2.32134 1.69918 2.79773 1.54038L3.34189 1.35899C3.60386 1.27167 3.88702 1.41325 3.97434 1.67522Z" fill="currentColor"/>
<path fill-rule="evenodd" clip-rule="evenodd" d="M4.66667 1.16667C4.66667 0.522334 5.189 0 5.83333 0H10.1667C10.811 0 11.3333 0.522335 11.3333 1.16667V2.16667C11.3333 2.811 10.811 3.33333 10.1667 3.33333H5.83333C5.189 3.33333 4.66667 2.811 4.66667 2.16667V1.16667ZM5.83333 1C5.74129 1 5.66667 1.07462 5.66667 1.16667V2.16667C5.66667 2.25871 5.74129 2.33333 5.83333 2.33333H10.1667C10.2587 2.33333 10.3333 2.25871 10.3333 2.16667V1.16667C10.3333 1.07462 10.2587 1 10.1667 1H5.83333Z" fill="currentColor"/>
</svg>
