<svg width="24" height="24" viewBox="0 0 24 24" fill="currentColor" xmlns="http://www.w3.org/2000/svg">
<path d="M12.4545 7.68182C12.4545 7.30526 12.1493 7 11.7727 7C11.3962 7 11.0909 7.30526 11.0909 7.68182V12.6818C11.0909 12.9265 11.222 13.1524 11.4345 13.2738L14.6163 15.092C14.9432 15.2788 15.3597 15.1652 15.5465 14.8383C15.7334 14.5113 15.6198 14.0948 15.2928 13.908L12.4545 12.2861V7.68182Z" fill="currentColor"/>
<path fill-rule="evenodd" clip-rule="evenodd" d="M12 2C6.47715 2 2 6.47715 2 12C2 17.5228 6.47715 22 12 22C17.5228 22 22 17.5228 22 12C22 6.47715 17.5228 2 12 2ZM3.36364 12C3.36364 7.23027 7.23027 3.36364 12 3.36364C16.7697 3.36364 20.6364 7.23027 20.6364 12C20.6364 16.7697 16.7697 20.6364 12 20.6364C7.23027 20.6364 3.36364 16.7697 3.36364 12Z" fill="currentColor"/>
</svg>
