<svg width="50" height="50" viewBox="0 0 50 50" fill="none" xmlns="http://www.w3.org/2000/svg">
<g clip-path="url(#clip0_5383_123610)">
<path d="M25.007 50.0254C13.2952 49.9667 3.0106 41.8329 0.625215 30.3752C-1.36913 20.775 1.42686 12.6021 8.73945 6.05209C12.5131 2.66953 17.0297 0.792498 22.0742 0.166822C24.5164 -0.117254 26.9872 -0.0381853 29.4063 0.401453C30.1884 0.518767 30.7163 0.988023 30.8532 1.6528C30.9901 2.31758 30.6772 2.98237 29.8951 3.45162C28.2918 4.37059 27.7053 5.95433 28.4091 7.49896C28.5747 7.8784 28.8163 8.21989 29.1189 8.50237C29.4216 8.78484 29.7789 9.00231 30.1689 9.14136C31.3224 9.59107 31.6157 10.1385 31.3811 11.3508C30.5208 15.6328 34.3726 19.465 38.6546 18.6047C39.8082 18.3701 40.3948 18.6829 40.8249 19.7779C41.2551 20.8728 42.2131 21.7526 43.5427 21.8309C44.8722 21.9091 45.8499 21.3029 46.4951 20.1494C46.9644 19.3086 47.5314 18.9958 48.2939 19.1326C49.0565 19.2695 49.4475 19.7779 49.5844 20.5404C49.6626 20.951 49.7212 21.342 49.7799 21.7526C50.3469 26.2106 49.8386 30.5708 48.0202 34.6768C44.579 42.4782 38.6546 47.3858 30.3644 49.3802C29.6502 49.553 28.9251 49.6771 28.1941 49.7517C27.1382 49.8885 26.0629 49.9472 25.007 50.0254ZM25.7109 3.17789C18.3397 2.72818 9.30647 6.81463 5.14181 15.8478C0.977156 24.881 3.28434 35.1656 10.9489 41.7156C18.1833 47.8942 28.8393 48.6567 37.0709 43.2016C40.9775 40.6311 43.9475 36.8654 45.537 32.4674C46.5215 29.8328 46.9606 27.0256 46.8275 24.2162L46.632 24.2554C45.2506 24.9869 43.6434 25.1677 42.1341 24.7613C40.6247 24.355 39.3255 23.3917 38.4982 22.0655C38.3725 21.94 38.206 21.8637 38.0289 21.8504C37.4228 21.7917 36.8167 21.8309 36.2301 21.7526C31.5375 21.2052 27.8812 16.8646 28.1354 12.1524C28.1539 11.9905 28.125 11.8266 28.0521 11.6808C27.9792 11.535 27.8655 11.4136 27.7248 11.3312C25.6718 9.84525 24.7333 7.8509 25.0852 5.32865C25.2026 4.60521 25.4958 3.92088 25.7109 3.17789V3.17789Z" fill="white"/>
<path d="M21.8786 12.5034C21.8786 13.1221 21.6951 13.727 21.3514 14.2414C21.0076 14.7559 20.519 15.1568 19.9474 15.3936C19.3757 15.6304 18.7467 15.6924 18.1399 15.5717C17.533 15.4509 16.9756 15.153 16.5381 14.7155C16.1006 14.278 15.8026 13.7205 15.6819 13.1137C15.5612 12.5069 15.6232 11.8778 15.86 11.3062C16.0967 10.7346 16.4977 10.246 17.0122 9.90222C17.5266 9.55847 18.1315 9.375 18.7502 9.375C19.5783 9.38013 20.3711 9.71137 20.9566 10.2969C21.5422 10.8825 21.8735 11.6753 21.8786 12.5034V12.5034Z" fill="white"/>
<path d="M42.3556 31.0219C42.3556 31.6407 42.1722 32.2455 41.8284 32.76C41.4847 33.2744 40.9961 33.6754 40.4244 33.9122C39.8528 34.149 39.2238 34.2109 38.6169 34.0902C38.0101 33.9695 37.4527 33.6715 37.0152 33.234C36.5776 32.7965 36.2797 32.2391 36.159 31.6323C36.0383 31.0254 36.1002 30.3964 36.337 29.8248C36.5738 29.2531 36.9748 28.7645 37.4892 28.4208C38.0037 28.077 38.6085 27.8936 39.2273 27.8936C40.057 27.8936 40.8527 28.2232 41.4394 28.8098C42.026 29.3965 42.3556 30.1922 42.3556 31.0219Z" fill="white"/>
<path d="M21.0243 34.2846C21.0281 34.9042 20.848 35.5109 20.5066 36.0279C20.1652 36.545 19.678 36.949 19.1067 37.1888C18.5354 37.4285 17.9058 37.4933 17.2977 37.3748C16.6895 37.2563 16.1303 36.9599 15.6908 36.5232C15.2513 36.0865 14.9514 35.5291 14.8291 34.9217C14.7068 34.3143 14.7676 33.6843 15.0038 33.1115C15.24 32.5388 15.641 32.049 16.1558 31.7044C16.6707 31.3598 17.2763 31.1758 17.8959 31.1758C18.7207 31.1808 19.5105 31.5094 20.0955 32.0908C20.6806 32.6721 21.014 33.4599 21.0243 34.2846V34.2846Z" fill="white"/>
<path d="M26.1002 22.9147C26.0976 23.1201 26.0546 23.323 25.9737 23.5118C25.8927 23.7006 25.7753 23.8716 25.6283 24.015C25.4812 24.1585 25.3073 24.2715 25.1165 24.3478C24.9258 24.424 24.7219 24.4619 24.5164 24.4593C24.2071 24.4554 23.9059 24.3599 23.6508 24.1848C23.3958 24.0097 23.1984 23.7629 23.0836 23.4757C22.9688 23.1884 22.9418 22.8735 23.0059 22.5709C23.0701 22.2683 23.2225 21.9915 23.444 21.7755C23.6654 21.5595 23.946 21.414 24.2501 21.3574C24.5543 21.3009 24.8683 21.3358 25.1527 21.4577C25.437 21.5796 25.6787 21.7831 25.8474 22.0425C26.0161 22.3018 26.104 22.6053 26.1002 22.9147Z" fill="white"/>
<path d="M11.431 21.3376C11.65 21.3175 11.8708 21.3439 12.0789 21.4149C12.2871 21.4859 12.4779 21.6 12.6389 21.7498C12.8 21.8996 12.9277 22.0817 13.0136 22.2841C13.0995 22.4866 13.1418 22.7049 13.1376 22.9248C13.1335 23.1446 13.083 23.3612 12.9895 23.5603C12.896 23.7593 12.7616 23.9364 12.595 24.08C12.4284 24.2236 12.2334 24.3305 12.0227 24.3936C11.812 24.4567 11.5904 24.4747 11.3723 24.4464C11.1653 24.4467 10.9604 24.4048 10.77 24.3233C10.5797 24.2418 10.408 24.1224 10.2653 23.9724C10.1226 23.8224 10.0119 23.6449 9.94007 23.4508C9.8682 23.2566 9.8366 23.0499 9.84722 22.8431C9.85229 22.6403 9.89729 22.4404 9.97963 22.2549C10.062 22.0694 10.1801 21.902 10.3271 21.7622C10.4742 21.6224 10.6474 21.5129 10.8368 21.4401C11.0262 21.3672 11.2281 21.3324 11.431 21.3376V21.3376Z" fill="white"/>
<path d="M29.6428 39.3917C29.8499 39.3917 30.0549 39.4328 30.246 39.5126C30.437 39.5925 30.6103 39.7094 30.7558 39.8568C30.9014 40.0041 31.0162 40.1788 31.0936 40.3709C31.1711 40.5629 31.2096 40.7684 31.207 40.9755C31.1918 41.3853 31.0183 41.7732 30.7229 42.0576C30.4275 42.3421 30.0333 42.5008 29.6233 42.5006C29.4044 42.5237 29.183 42.5004 28.9738 42.4322C28.7645 42.3639 28.572 42.2523 28.4088 42.1045C28.2456 41.9568 28.1155 41.7763 28.0269 41.5748C27.9383 41.3733 27.8932 41.1553 27.8946 40.9352C27.8959 40.7151 27.9438 40.4978 28.0349 40.2974C28.1261 40.097 28.2585 39.9181 28.4235 39.7725C28.5885 39.6268 28.7824 39.5176 28.9925 39.452C29.2026 39.3863 29.4242 39.3658 29.6428 39.3917V39.3917Z" fill="white"/>
</g>
<defs>
<clipPath id="clip0_5383_123610">
<rect width="50" height="50" fill="white"/>
</clipPath>
</defs>
</svg>
