<svg width="24" height="24" viewBox="0 0 24 24" fill="currentColor" xmlns="http://www.w3.org/2000/svg">
<path d="M16.5714 20.25V21.9688C16.5714 22.5383 16.1157 23 15.5536 23H4.01786C3.4557 23 3 22.5383 3 21.9688V6.15625C3 5.5867 3.4557 5.125 4.01786 5.125H7.07143V17.8438C7.07143 19.1706 8.13683 20.25 9.44643 20.25H16.5714ZM16.5714 5.46875V1H9.44643C8.88427 1 8.42857 1.4617 8.42857 2.03125V17.8438C8.42857 18.4133 8.88427 18.875 9.44643 18.875H20.9821C21.5443 18.875 22 18.4133 22 17.8438V6.5H17.5893C17.0295 6.5 16.5714 6.03594 16.5714 5.46875ZM21.7019 4.13547L18.9052 1.30203C18.7144 1.10864 18.4555 1 18.1855 1H17.9286V5.125H22V4.86465C22 4.59116 21.8928 4.32887 21.7019 4.13547V4.13547Z" fill="currentColor"/>
</svg>
