<svg width="12" height="12" viewBox="0 0 12 12" fill="currentColor" xmlns="http://www.w3.org/2000/svg">
<path fill-rule="evenodd" clip-rule="evenodd" d="M0.766066 0.766554C1.01014 0.522477 1.40587 0.522477 1.64995 0.766554L5.99967 5.11628L10.3494 0.766554C10.5935 0.522477 10.9892 0.522477 11.2333 0.766554C11.4774 1.01063 11.4774 1.40636 11.2333 1.65044L6.88356 6.00016L11.2333 10.3499C11.4774 10.594 11.4774 10.9897 11.2333 11.2338C10.9892 11.4778 10.5935 11.4778 10.3494 11.2338L5.99967 6.88405L1.64995 11.2338C1.40587 11.4778 1.01014 11.4778 0.766066 11.2338C0.521988 10.9897 0.521988 10.594 0.766066 10.3499L5.11579 6.00016L0.766066 1.65044C0.521988 1.40636 0.521988 1.01063 0.766066 0.766554Z" fill="currentColor"/>
</svg>
