<svg width="20" height="20" viewBox="0 0 20 20" fill="currentColor" xmlns="http://www.w3.org/2000/svg">
<path d="M4.14204 9.19129C3.89796 8.94721 3.89796 8.55149 4.14204 8.30741C4.38612 8.06333 4.78185 8.06333 5.02593 8.30741L9.16732 12.4488V2.29102C9.16732 1.94584 9.44714 1.66602 9.79232 1.66602C10.1375 1.66602 10.4173 1.94584 10.4173 2.29102V12.4488L14.5587 8.30741C14.8028 8.06333 15.1985 8.06333 15.4426 8.30741C15.6867 8.55149 15.6867 8.94721 15.4426 9.19129L10.2343 14.3996C9.99018 14.6437 9.59445 14.6437 9.35038 14.3996L4.14204 9.19129Z" fill="currentColor"/>
<path d="M3.95898 17.0827C3.61381 17.0827 3.33398 17.3625 3.33398 17.7077C3.33398 18.0529 3.61381 18.3327 3.95898 18.3327H16.0423C16.3875 18.3327 16.6673 18.0529 16.6673 17.7077C16.6673 17.3625 16.3875 17.0827 16.0423 17.0827H3.95898Z" fill="currentColor"/>
</svg>
