<svg width="20" height="16" viewBox="0 0 20 16" fill="currentColor" xmlns="http://www.w3.org/2000/svg">
<path fill-rule="evenodd" clip-rule="evenodd" d="M1.45833 0C0.652918 0 0 0.716344 0 1.6V14.4C0 15.2837 0.652918 16 1.45833 16H18.5417C19.3471 16 20 15.2837 20 14.4V1.6C20 0.716344 19.3471 0 18.5417 0H1.45833ZM1.25 1.6C1.25 1.47376 1.34327 1.37143 1.45833 1.37143H18.5417C18.6567 1.37143 18.75 1.47376 18.75 1.6V2.37857L10.1166 8.77861C10.0461 8.83086 9.95381 8.83086 9.88334 8.77862L1.25 2.37861V1.6ZM1.25 4.03375V14.4C1.25 14.5262 1.34327 14.6286 1.45833 14.6286H18.5417C18.6567 14.6286 18.75 14.5262 18.75 14.4V4.03371L10.8164 9.91497C10.3232 10.2806 9.6768 10.2806 9.18352 9.91497L1.25 4.03375Z" fill="currentColor"/>
</svg>
