<svg width="28" height="28" viewBox="0 0 28 28" fill="currentColor" xmlns="http://www.w3.org/2000/svg">
<path fill-rule="evenodd" clip-rule="evenodd" d="M13.9484 3.6416C14.263 3.6416 14.5518 3.81531 14.6993 4.09315L25.3221 24.1106C25.4619 24.3741 25.4534 24.6916 25.2997 24.9472C25.146 25.2028 24.8695 25.3591 24.5713 25.3591H3.32559C3.02733 25.3591 2.75089 25.2028 2.59717 24.9472C2.44345 24.6916 2.43495 24.3741 2.57476 24.1106L13.1976 4.09315C13.3451 3.81531 13.6339 3.6416 13.9484 3.6416ZM4.73894 23.6591H23.1579L13.9484 6.30489L4.73894 23.6591Z" fill="currentColor"/>
<path fill-rule="evenodd" clip-rule="evenodd" d="M14.1185 19.0366C14.8522 19.0366 15.4469 19.6343 15.4469 20.3716C15.4469 21.1089 14.8522 21.7065 14.1185 21.7065C13.3848 21.7065 12.79 21.1089 12.79 20.3716C12.79 19.6343 13.3848 19.0366 14.1185 19.0366ZM15.1188 16.9025C15.1188 17.4548 14.6711 17.9025 14.1188 17.9025C13.5665 17.9025 13.1188 17.4548 13.1188 16.9025V13.1659C13.1188 12.6137 13.5665 12.1659 14.1188 12.1659C14.6711 12.1659 15.1188 12.6137 15.1188 13.1659V16.9025Z" fill="currentColor"/>
</svg>
