<svg width="24" height="24" viewBox="0 0 24 24" fill="currentColor" xmlns="http://www.w3.org/2000/svg">
<path d="M15.5 12C15.5 13.933 13.933 15.5 12 15.5C10.067 15.5 8.5 13.933 8.5 12C8.5 10.067 10.067 8.5 12 8.5C13.933 8.5 15.5 10.067 15.5 12Z" fill="currentColor"/>
<path fill-rule="evenodd" clip-rule="evenodd" d="M12.0001 3.50012C8.56823 3.50012 5.87563 5.03429 3.94603 6.74074C2.0204 8.44368 0.814528 10.3514 0.329717 11.2014C0.0450429 11.7005 0.045042 12.2998 0.329716 12.7989C0.814527 13.6488 2.0204 15.5566 3.94603 17.2595C5.87563 18.966 8.56822 20.5001 12.0001 20.5001C15.432 20.5001 18.1246 18.9659 20.0542 17.2595C21.9798 15.5565 23.1857 13.6488 23.6705 12.7988C23.9552 12.2997 23.9552 11.7004 23.6705 11.2013C23.1857 10.3513 21.9798 8.44363 20.0542 6.74071C18.1246 5.03428 15.432 3.50012 12.0001 3.50012ZM1.63266 11.9446C2.07414 11.1706 3.18421 9.41688 4.93973 7.86438C6.69127 6.3154 9.04499 5.00012 12.0001 5.00012C14.9553 5.00012 17.309 6.31539 19.0605 7.86435C20.816 9.41683 21.9261 11.1705 22.3675 11.9445C22.3807 11.9675 22.384 11.9861 22.384 12.0001C22.384 12.014 22.3807 12.0326 22.3675 12.0556C21.9261 12.8296 20.816 14.5833 19.0605 16.1358C17.309 17.6848 14.9553 19.0001 12.0001 19.0001C9.04499 19.0001 6.69127 17.6848 4.93973 16.1359C3.18421 14.5834 2.07414 12.8297 1.63266 12.0557C1.61955 12.0327 1.61621 12.0141 1.61621 12.0001C1.61621 11.9861 1.61955 11.9676 1.63266 11.9446Z" fill="currentColor"/>
</svg>
