<svg width="73" height="73" viewBox="0 0 73 73" fill="currentColor" xmlns="http://www.w3.org/2000/svg">
<path fill-rule="evenodd" clip-rule="evenodd" d="M15.2083 7.60419C14.3684 7.60419 13.6875 8.28509 13.6875 9.12502V63.875C13.6875 64.715 14.3684 65.3959 15.2083 65.3959H57.7917C58.6316 65.3959 59.3125 64.715 59.3125 63.875V25.8542H47.1458C43.7861 25.8542 41.0625 23.1306 41.0625 19.7709V7.60419H15.2083ZM45.625 7.60515V19.7709C45.625 20.6108 46.3059 21.2917 47.1458 21.2917H59.3115C59.2979 20.908 59.1395 20.5428 58.8671 20.2703L46.6464 8.04963C46.3739 7.77718 46.0087 7.61878 45.625 7.60515ZM9.125 9.12502C9.125 5.76529 11.8486 3.04169 15.2083 3.04169H45.571C47.1844 3.04169 48.7317 3.68261 49.8725 4.82345L62.0932 17.0442C63.2341 18.185 63.875 19.7323 63.875 21.3457V63.875C63.875 67.2348 61.1514 69.9584 57.7917 69.9584H15.2083C11.8486 69.9584 9.125 67.2348 9.125 63.875V9.12502Z" fill="currentColor"/>
</svg>
