<svg width="24" height="24" viewBox="0 0 24 24" fill="none" xmlns="http://www.w3.org/2000/svg">
<path d="M21.25 6C21.6642 6 22 6.33579 22 6.75C22 7.16421 21.6642 7.5 21.25 7.5H2.75C2.33579 7.5 2 7.16421 2 6.75C2 6.33579 2.33579 6 2.75 6H21.25Z" fill="#D3D4E2"/>
<path d="M18 11.75C18 11.3358 17.6642 11 17.25 11H6.75C6.33579 11 6 11.3358 6 11.75C6 12.1642 6.33579 12.5 6.75 12.5H17.25C17.6642 12.5 18 12.1642 18 11.75Z" fill="#D3D4E2"/>
<path d="M14 16.6875C14 16.2733 13.6642 15.9375 13.25 15.9375H10.75C10.3358 15.9375 10 16.2733 10 16.6875C10 17.1017 10.3358 17.4375 10.75 17.4375H13.25C13.6642 17.4375 14 17.1017 14 16.6875Z" fill="#D3D4E2"/>
</svg>
