<svg width="39" height="38" viewBox="0 0 39 38" fill="currentColor" xmlns="http://www.w3.org/2000/svg">
<path d="M11.2255 34.3237H12.84V21.7131C12.84 20.9186 13.0822 20.6741 13.8692 20.6741H18.3897C19.1364 20.6945 19.3786 20.939 19.3786 21.6928V34.2626H20.9931V17.4349C20.9931 16.4774 21.1747 16.3144 22.103 16.3144H26.5832C27.3097 16.3144 27.5518 16.5589 27.5518 17.2719V34.2626H29.1663V13.3197C29.1663 12.4437 29.3681 12.2399 30.2157 12.2399H34.3528C35.5838 12.2399 35.7049 12.3418 35.7049 13.5845V34.3644H37.6624C38.389 34.3644 38.6513 34.5478 38.6513 35.0571C38.6513 35.5664 38.3486 35.8109 37.6624 35.8109H2.06344C1.21585 35.8109 0.993858 35.5868 0.993858 34.7311V2.66489C0.98714 2.50085 1.0007 2.33661 1.03422 2.17595C1.05403 2.01212 1.13285 1.86137 1.25566 1.75242C1.37848 1.64347 1.5367 1.58394 1.70019 1.58515C1.86978 1.57244 2.038 1.62377 2.17224 1.72916C2.30647 1.83456 2.39715 1.98652 2.4267 2.15558C2.46026 2.35744 2.47378 2.56218 2.46706 2.76675V34.3033H4.66677C4.68357 34.1341 4.69031 33.964 4.68695 33.794V26.3581C4.68695 25.5635 4.90894 25.3394 5.69599 25.3394H10.2367C11.0237 25.3394 11.2255 25.5432 11.2255 26.3784V34.3237V34.3237ZM30.5992 13.6864V34.2626H34.2519V13.6864H30.5992ZM22.4461 17.8016V34.3237H26.0988V17.8016H22.4461ZM17.9659 34.3644V22.2021H14.293V33.9162C14.293 34.1403 14.2728 34.3644 14.6159 34.3644C15.7057 34.3441 16.8156 34.3644 17.9659 34.3644ZM9.7927 34.2829V26.7859H6.13997V34.2829H9.7927Z" fill="currentColor"/>
<path d="M22.9506 8.00234C22.6681 7.7375 22.3855 7.53378 22.1635 7.28931C21.9415 7.04484 21.9214 6.43366 22.4057 6.29106C23.556 5.94472 24.6861 5.61876 25.8364 5.31317C26.341 5.17057 26.684 5.49653 26.563 6.00584C26.2939 7.18744 26.0113 8.36905 25.7154 9.55065C25.5741 10.0803 25.0897 10.1822 24.7063 9.81549C24.3229 9.44878 24.2623 9.30618 24.0807 9.10245C22.6277 10.3248 21.2958 11.5268 19.8629 12.6065C16.8963 14.8679 13.5665 16.4569 10.055 17.6793C9.57068 17.8422 9.18725 17.6996 9.04598 17.3329C8.90472 16.9662 9.08634 16.4773 9.65141 16.2939C12.1983 15.4053 14.6467 14.2514 16.9569 12.851C19.1443 11.4891 21.1573 9.86067 22.9506 8.00234V8.00234Z" fill="currentColor"/>
</svg>
