<svg width="41" height="40" viewBox="0 0 41 40" fill="none" xmlns="http://www.w3.org/2000/svg">
<path d="M17.753 33.832V31.8076C17.753 30.9511 17.7686 30.0945 17.7374 29.238C17.7295 28.603 17.4747 27.996 17.0272 27.5455C16.5796 27.095 15.9744 26.8363 15.3395 26.8243C14.7634 26.8087 14.1717 26.8243 13.6111 26.8243C13.035 28.6463 11.8983 29.6429 10.3879 29.7052C8.56611 29.7831 7.56956 29.0044 6.68201 26.871C5.96575 26.871 5.26505 26.7775 4.57993 26.8865C4.0116 26.9586 3.48914 27.2358 3.11068 27.6659C2.73222 28.096 2.5238 28.6495 2.52455 29.2225C2.49341 30.7019 2.52455 32.1969 2.52455 33.6919C2.52934 33.7346 2.53981 33.7765 2.5557 33.8165C2.69655 33.8113 2.83755 33.8218 2.97611 33.8476C3.1206 33.8632 3.25384 33.9329 3.34913 34.0426C3.44443 34.1524 3.49473 34.2941 3.48996 34.4394C3.49008 34.5136 3.47502 34.5872 3.4457 34.6554C3.41639 34.7236 3.37344 34.7852 3.31949 34.8362C3.26553 34.8873 3.20172 34.9267 3.13196 34.9522C3.06221 34.9777 2.98798 34.9887 2.91383 34.9844H1.93286C1.57472 34.9688 1.35673 34.7508 1.35673 34.4238C1.35673 32.5239 1.29445 30.6084 1.43458 28.7241C1.57472 26.8398 3.16297 25.6719 4.89135 25.6407H6.07474C5.52976 25.1424 4.9692 24.6908 4.47093 24.1613C3.68687 23.3275 3.1247 22.3101 2.83598 21.2025C2.82053 21.1006 2.7729 21.0064 2.70005 20.9335C2.62721 20.8607 2.53298 20.813 2.43113 20.7976C1.16988 20.455 0.391326 19.614 0.204474 18.3215C0.0176216 17.0289 0.531465 16.1101 1.57472 15.4094L1.746 15.3004C1.62144 14.4127 1.45016 13.5562 1.40344 12.6841C1.31002 11.3137 1.29445 9.94331 1.27887 8.5729C1.2633 8.059 1.62144 7.8254 2.11971 7.98113C2.61798 8.13686 3.0384 8.24587 3.48996 8.41717C3.53137 8.44097 3.5773 8.45584 3.6248 8.46083C3.6723 8.46582 3.72032 8.46083 3.76577 8.44616C3.81123 8.4315 3.85311 8.40749 3.88874 8.37568C3.92437 8.34387 3.95296 8.30496 3.97266 8.26144C5.24948 6.53286 6.96229 5.64521 9.11109 5.48948C10.5903 5.39604 12.054 5.34932 13.4865 5.81651C15.0281 6.3261 16.376 7.29688 17.3479 8.59756C18.3198 9.89825 18.8689 11.4661 18.9208 13.089C18.9364 13.8209 18.9208 14.5373 18.9208 15.2692C18.9092 15.3959 18.9423 15.5226 19.0143 15.6274C19.5898 16.13 19.9701 16.8191 20.0886 17.574C20.3378 17.2314 20.4935 16.9355 20.4779 16.4839C20.4156 15.1291 20.3845 13.7742 20.8361 12.4505C21.8949 9.35154 24.8378 7.18692 28.0921 7.20249H29.587C31.8292 7.20249 33.7133 8.07457 35.2237 9.70972C35.5351 10.0523 35.5662 10.3949 35.3015 10.6441C35.0368 10.8933 34.6943 10.8465 34.3673 10.5039C33.1371 9.19581 31.6423 8.46389 29.8517 8.37045C29.6181 8.35488 29.4468 8.33931 29.3534 8.65076C29.3067 8.74449 29.236 8.82415 29.1484 8.8816C29.0609 8.93906 28.9597 8.97225 28.8551 8.97779C28.6683 8.97779 28.4814 8.77535 28.3101 8.65076C28.1389 8.52618 28.2479 8.47946 28.2167 8.4016C24.6042 7.8877 21.0541 11.9678 21.6613 16.0011H25.0247C25.2855 16.0042 25.5461 15.9834 25.8032 15.9388C26.4613 15.8095 27.0581 15.4658 27.5003 14.9615C27.9426 14.4573 28.2054 13.8207 28.2479 13.1513C28.2491 13.0356 28.2648 12.9205 28.2946 12.8087C28.3322 12.6835 28.4112 12.5749 28.5188 12.5006C28.6263 12.4262 28.7558 12.3907 28.8862 12.3998C29.0166 12.4088 29.14 12.4619 29.2362 12.5504C29.3324 12.6389 29.3957 12.7574 29.4157 12.8866C29.4343 13.1698 29.4759 13.451 29.5402 13.7275C29.7058 14.3794 30.0831 14.958 30.6129 15.3723C31.1427 15.7866 31.7951 16.0133 32.4676 16.0167H36.0645C36.1112 15.0045 36.0956 14.039 35.8154 13.089C35.7842 13.0112 35.7687 12.9333 35.7375 12.8554C35.6129 12.435 35.7531 12.1235 36.1112 12.0145C36.4693 11.9055 36.7652 12.0924 36.8431 12.5128C37.0269 13.2604 37.157 14.0203 37.2323 14.7865C37.279 15.4872 37.2012 16.188 37.1856 16.8732C37.1957 16.9627 37.2278 17.0483 37.279 17.1224C37.5642 17.5007 37.7446 17.9475 37.802 18.4177C37.8594 18.888 37.7918 19.3651 37.606 19.8009C38.0789 20.1814 38.5311 20.5869 38.9607 21.0156C39.6398 21.7825 40.0016 22.7791 39.9728 23.8031V27.1824C39.9728 27.743 39.786 27.9455 39.2254 27.9299L36.5939 27.8053C37.0922 28.5684 37.0455 29.5184 37.0455 30.4527C37.0299 31.7141 37.0455 32.9755 37.0455 34.2213C37.0299 34.8131 36.8586 35 36.2825 35H21.4278C20.8672 35 20.6959 34.8131 20.6959 34.2525C20.6803 32.8354 20.6959 31.4338 20.6803 30.0167C20.6648 29.2225 20.7426 28.4438 21.163 27.7586L18.7495 27.9922C19.0921 30.0945 18.8585 32.2436 18.9208 34.3771C18.9208 34.782 18.7028 35 18.2824 35H5.68547C5.28062 35 5.06263 34.782 5.04706 34.4238C5.03149 34.0656 5.28062 33.8476 5.68547 33.832C5.78913 33.8242 5.89323 33.8242 5.99689 33.832H17.753ZM4.79792 13.1825C4.30618 13.891 3.97656 14.6992 3.83252 15.5495C3.75466 15.9388 3.53667 16.1413 3.1474 16.1569C2.97967 16.1613 2.81278 16.1822 2.64912 16.2192C2.24509 16.3305 1.8929 16.5801 1.6539 16.9244C1.4149 17.2687 1.30423 17.686 1.34116 18.1035C1.41901 18.9911 2.13528 19.6608 3.08511 19.7386C3.6301 19.7853 3.72352 19.8476 3.83252 20.4238C4.12871 21.8772 4.91927 23.1831 6.06967 24.1192C7.22008 25.0553 8.65927 25.5639 10.1424 25.5584C11.6254 25.5529 13.0608 25.0337 14.2042 24.089C15.3477 23.1443 16.1285 21.8327 16.4139 20.3771C16.5229 19.8943 16.6475 19.7698 17.1457 19.7386C17.411 19.7351 17.672 19.6716 17.9093 19.553C18.1466 19.4343 18.354 19.2635 18.516 19.0534C18.739 18.7953 18.8791 18.476 18.9179 18.1371C18.9568 17.7982 18.8927 17.4554 18.734 17.1535C18.5981 16.8485 18.3745 16.5908 18.0916 16.4133C17.8088 16.2358 17.4795 16.1465 17.1457 16.1569H9.68722C8.92481 16.1797 8.16614 16.0417 7.46056 15.752C6.28561 15.2546 5.33687 14.339 4.79792 13.1825ZM17.753 14.9889V13.198C17.7149 11.7511 17.2154 10.3542 16.3274 9.21117C15.4394 8.06816 14.2095 7.23888 12.817 6.84432C11.6025 6.51729 10.3879 6.59515 9.1578 6.68859C7.19586 6.81317 5.68547 7.70082 4.65778 9.36711C4.3775 9.81873 4.20622 9.88102 3.69238 9.72529L2.3377 9.28925C2.47784 11.0801 2.60241 12.7776 2.72698 14.5684L2.89826 14.4283C2.9294 14.3504 2.94497 14.2726 2.97611 14.2103C3.30055 13.25 3.83213 12.3727 4.53321 11.6407C4.67335 11.485 4.98477 11.3604 5.15605 11.4227C5.26212 11.4667 5.35662 11.5346 5.43223 11.621C5.50784 11.7074 5.56253 11.8101 5.59204 11.9211C6.10589 13.7898 7.55399 14.9733 9.50037 14.9889H17.753ZM28.8396 15.1446L28.715 15.3159C27.8326 16.5825 26.6181 17.2054 25.0714 17.1847H22.58C22.2215 17.1889 21.8755 17.3167 21.6003 17.5465C21.3252 17.7763 21.1377 18.0941 21.0696 18.4461C20.9139 19.4116 21.5523 20.1902 22.5489 20.2837C23.0627 20.3304 23.1561 20.4082 23.2807 20.9221C23.2958 21.0116 23.3166 21.1001 23.343 21.1869C23.997 24.0679 27.0177 26.0145 29.914 25.3916C32.3119 24.8621 33.8223 23.3827 34.3828 20.9844C34.523 20.4082 34.6008 20.346 35.177 20.2681C36.0956 20.1747 36.6718 19.5206 36.6406 18.6329C36.6095 17.7453 35.9244 17.2002 35.0212 17.1847H32.4832C31.8595 17.1904 31.2426 17.0546 30.679 16.7876C30.1153 16.5206 29.6195 16.1292 29.2288 15.643C29.0879 15.4859 28.9578 15.3194 28.8396 15.1446ZM21.8637 33.8009H35.8621C35.8621 32.337 35.8776 30.8888 35.8621 29.4405C35.853 28.9089 35.6605 28.3968 35.3171 27.991C34.9738 27.5851 34.5007 27.3105 33.978 27.2136C33.3551 27.1201 32.7012 27.1513 32.0783 27.1201C31.7513 29.129 30.5835 30.2503 28.8863 30.2814C27.189 30.3126 26.0368 29.2069 25.6319 27.1513C25.0923 27.1252 24.5516 27.1304 24.0125 27.1669C22.8759 27.2759 21.9105 28.1791 21.8793 29.2692C21.817 30.7798 21.8637 32.2747 21.8637 33.8009ZM38.805 26.7308C38.805 25.7342 38.8206 24.7531 38.805 23.772C38.8038 23.2711 38.6848 22.7775 38.4576 22.3311C38.2304 21.8847 37.9013 21.4981 37.497 21.2025C37.1389 20.9377 36.8586 20.891 36.3604 21.0779C35.8621 21.2648 35.395 21.8098 35.1302 22.4483C34.7098 23.5384 34.8811 24.5195 35.5039 25.4227C36.1268 26.3259 37.4347 26.871 38.805 26.7308ZM18.843 26.762H19.5437C21.4278 26.7308 22.7669 25.3604 22.798 23.4761C22.8136 22.8999 22.4554 22.495 22.3464 21.9811C22.2374 21.4672 22.0973 21.3582 21.6769 21.2803C21.2565 21.2025 21.272 21.0623 21.0541 20.9844C20.9155 20.9289 20.7631 20.918 20.6181 20.9533C19.7617 21.4049 19.1232 22.0901 19.0143 23.0245C18.8585 24.2392 18.8897 25.4694 18.843 26.762ZM19.8707 19.1157L19.6838 19.4272C19.4922 19.7728 19.2293 20.0737 18.9125 20.31C18.5957 20.5463 18.2323 20.7125 17.8464 20.7976C17.7427 20.8123 17.6462 20.8593 17.5707 20.932C17.4953 21.0047 17.4446 21.0993 17.426 21.2025C17.0126 22.686 16.1539 24.0069 14.9658 24.9867C14.7011 25.2047 14.4364 25.3916 14.0627 25.6719C15.4329 25.594 16.6475 25.6407 17.7219 26.6062C17.7219 25.5784 17.7063 24.6752 17.7219 23.772C17.753 22.1368 18.4848 20.9066 19.8551 20.0345L20.1042 19.8632L19.8707 19.1157ZM26.862 26.3726C26.753 27.4004 26.9088 28.2881 27.8586 28.8331C28.1787 29.0341 28.5517 29.1341 28.9294 29.1202C29.307 29.1063 29.6718 28.9792 29.9762 28.7553C30.8326 28.1791 30.9416 27.3226 30.8482 26.3726C29.548 26.7622 28.1622 26.7622 26.862 26.3726ZM12.4433 26.3726C10.9551 26.8426 9.35987 26.8534 7.86541 26.4038C7.8919 26.9611 8.12515 27.4885 8.51961 27.883C8.91407 28.2775 9.44141 28.5108 9.99864 28.5373C11.3066 28.584 12.3187 27.7119 12.4433 26.3726ZM23.888 24.6129L23.234 26.0456L25.6319 25.9366L23.888 24.6129ZM32.0628 25.8899V26.0145H34.414C34.2271 25.5784 34.0091 25.0801 33.7756 24.5818C33.4953 24.8154 33.2306 25.0645 32.9503 25.2825C32.67 25.5006 32.3586 25.6874 32.0628 25.8899Z" fill="#FF2E6D"/>
</svg>
