<svg width="16" height="15" viewBox="0 0 16 15" fill="currentColor" xmlns="http://www.w3.org/2000/svg">
    <path fill-rule="evenodd" clip-rule="evenodd" d="M8.19449 0.372688C8.07014 0.320188 7.92986 0.320188 7.80551 0.372688L0.305514 3.53936C0.120351 3.61754 0 3.79899 0 3.99998C0 4.20097 0.120351 4.38242 0.305514 4.4606L2.83333 5.52791V8.06366C2.50921 8.14769 2.20158 8.31523 1.94854 8.56827C1.56268 8.95411 1.33333 9.50847 1.33333 10.1874V13.1874C1.33333 13.3536 1.41863 13.512 1.55672 13.6039C1.59614 13.6301 1.635 13.6525 1.70345 13.6867C1.78584 13.7279 1.90144 13.7788 2.05019 13.8284C2.34841 13.9279 2.77673 14.0208 3.33333 14.0208C3.88991 14.0208 4.31822 13.9279 4.61642 13.8285C4.76517 13.7789 4.88077 13.728 4.96316 13.6868C5.02771 13.6546 5.06546 13.6324 5.1031 13.6085C5.24409 13.5168 5.33333 13.3562 5.33333 13.1875V10.1875C5.33333 9.50856 5.10399 8.95418 4.71814 8.56833C4.46509 8.31527 4.15746 8.14772 3.83333 8.06367V5.95013L7.80551 7.62727C7.92986 7.67977 8.07014 7.67977 8.19449 7.62727L11.6667 6.16123V8.8294C11.6516 8.8464 11.6341 8.8653 11.6142 8.88582C11.5065 8.99658 11.3251 9.15585 11.048 9.31938C10.4972 9.64443 9.54493 9.99998 8.00002 9.99998C7.59197 9.99998 7.22558 9.97516 6.89735 9.9328C6.62348 9.89745 6.37281 10.0908 6.33746 10.3647C6.30211 10.6385 6.49547 10.8892 6.76934 10.9246C7.14216 10.9727 7.55138 11 8.00002 11C9.7051 11 10.8362 10.6055 11.5562 10.1806C11.9146 9.96911 12.1654 9.75338 12.3312 9.58289C12.4268 9.48454 12.5209 9.37886 12.5929 9.26138L12.5933 9.2607C12.6413 9.1822 12.6667 9.09198 12.6667 8.99998V5.73901L15.6945 4.4606C15.8796 4.38242 16 4.20097 16 3.99998C16 3.79899 15.8796 3.61754 15.6945 3.53936L8.19449 0.372688ZM3.33329 8.99998C3.33328 8.99998 3.3333 8.99998 3.33329 8.99998C3.08198 8.99998 2.83697 9.09406 2.65563 9.27539C2.47899 9.45203 2.33333 9.74139 2.33333 10.1874V12.8684C2.5326 12.9386 2.86484 13.0208 3.33333 13.0208C3.80181 13.0208 4.13405 12.9386 4.33333 12.8685V10.1875C4.33333 9.74147 4.18768 9.45208 4.01103 9.27542C3.82967 9.09406 3.58461 8.99998 3.33329 8.99998ZM8 6.62391L1.78544 3.99998L8 1.37605L14.2146 3.99998L8 6.62391Z" fill="currentColor"/>
</svg>
