<svg width="18" height="12" viewBox="0 0 18 12" fill="currentColor" xmlns="http://www.w3.org/2000/svg">
<path d="M5.57234 5.13782V5.87404H4.78488V5.16757C4.78488 4.91968 4.71352 4.73873 4.57081 4.6247C4.4281 4.51067 4.23697 4.45366 3.99741 4.45366C3.81903 4.45366 3.65847 4.47597 3.51576 4.52059C3.37305 4.56521 3.25073 4.61478 3.14879 4.66932V5.87404H2.36133V4.65445C2.36133 4.54042 2.38426 4.4487 2.43014 4.37929C2.4811 4.30493 2.5601 4.23552 2.66714 4.17107C2.80985 4.08679 2.99589 4.00995 3.22524 3.94054C3.4546 3.87113 3.71199 3.83643 3.99741 3.83643C4.49181 3.83643 4.87662 3.9455 5.15185 4.16363C5.43218 4.37681 5.57234 4.70154 5.57234 5.13782ZM2.36133 5.48734H3.14879V7.40597C3.11311 7.41588 3.06214 7.42828 2.99589 7.44315C2.93472 7.45802 2.86592 7.46546 2.78946 7.46546C2.64675 7.46546 2.53972 7.43819 2.46836 7.38366C2.39701 7.32912 2.36133 7.23988 2.36133 7.11594V5.48734ZM4.78488 5.48734H5.57234V7.40597C5.53666 7.41588 5.48569 7.42828 5.41943 7.44315C5.35317 7.45802 5.28437 7.46546 5.21301 7.46546C5.0652 7.46546 4.95562 7.43819 4.88427 7.38366C4.81801 7.32912 4.78488 7.23988 4.78488 7.11594V5.48734Z" fill="currentColor"/>
<path d="M7.02488 6.10457L6.98665 5.54683L9.15791 5.24937C9.14262 5.01636 9.05852 4.82301 8.90561 4.66932C8.75271 4.51067 8.53609 4.43135 8.25577 4.43135C7.97034 4.43135 7.73334 4.5305 7.54476 4.72881C7.35617 4.92712 7.25933 5.20971 7.25424 5.57658L7.26953 5.85916C7.3103 6.21116 7.44027 6.4764 7.65944 6.65488C7.8786 6.82839 8.16657 6.91515 8.52335 6.91515C8.73742 6.91515 8.93365 6.88293 9.11204 6.81848C9.29043 6.75403 9.43314 6.68462 9.54017 6.61026C9.60133 6.64496 9.64975 6.69206 9.68543 6.75155C9.72621 6.81104 9.74659 6.87549 9.74659 6.9449C9.74659 7.05397 9.69053 7.15312 9.5784 7.24236C9.46627 7.3316 9.31336 7.40101 9.11968 7.45059C8.9311 7.50016 8.71703 7.52495 8.47748 7.52495C8.08502 7.52495 7.74099 7.45554 7.44537 7.31673C7.14975 7.17295 6.92039 6.96225 6.75729 6.68462C6.5942 6.40203 6.51265 6.05747 6.51265 5.65094C6.51265 5.35844 6.55597 5.10064 6.64262 4.87754C6.73436 4.64949 6.85923 4.45862 7.01723 4.30493C7.17524 4.15124 7.36127 4.03473 7.57534 3.95541C7.78941 3.87609 8.01876 3.83643 8.26341 3.83643C8.58451 3.83643 8.86739 3.90335 9.11204 4.03721C9.36178 4.16611 9.55546 4.34707 9.69308 4.58008C9.83069 4.81309 9.8995 5.07833 9.8995 5.37579C9.8995 5.49973 9.86892 5.59145 9.80775 5.65094C9.74659 5.70548 9.65995 5.74018 9.54782 5.75505L7.02488 6.10457Z" fill="currentColor"/>
<path d="M13.0941 4.99653C13.0126 5.28407 12.9234 5.57658 12.8266 5.87404C12.7297 6.1715 12.6354 6.44913 12.5437 6.70693C12.457 6.96473 12.378 7.18287 12.3067 7.36135C12.2608 7.39605 12.2022 7.42332 12.1308 7.44315C12.0646 7.46298 11.9779 7.47289 11.8709 7.47289C11.7588 7.47289 11.6568 7.45554 11.5651 7.42084C11.4733 7.38614 11.4122 7.33408 11.3816 7.26467C11.3306 7.16552 11.2746 7.02174 11.2134 6.83335C11.1522 6.64496 11.0885 6.43178 11.0223 6.19381C10.956 5.95088 10.8872 5.70052 10.8159 5.44272C10.7496 5.18492 10.6884 4.93456 10.6324 4.69163C10.5814 4.4487 10.5355 4.23304 10.4948 4.04465C10.5406 4.00003 10.5967 3.96037 10.6629 3.92566C10.7343 3.89096 10.8184 3.87361 10.9152 3.87361C11.0325 3.87361 11.1217 3.90335 11.1828 3.96285C11.2491 4.01738 11.2924 4.11158 11.3128 4.24544C11.3638 4.49332 11.4147 4.74864 11.4657 5.0114C11.5167 5.2692 11.5676 5.51461 11.6186 5.74762C11.6747 5.97567 11.7231 6.17894 11.7639 6.35741C11.8097 6.53093 11.8454 6.65983 11.8709 6.74411H11.9015C11.9372 6.63009 11.9932 6.44417 12.0697 6.18637C12.1512 5.92362 12.2455 5.62615 12.3526 5.29399C12.4647 4.96182 12.5743 4.6247 12.6813 4.28262C12.7374 4.24791 12.7985 4.22313 12.8648 4.20825C12.9361 4.19338 13.0126 4.18594 13.0941 4.18594C13.2114 4.18594 13.3082 4.20577 13.3847 4.24544C13.4611 4.28014 13.5121 4.33467 13.5376 4.40904C13.6497 4.7412 13.7542 5.06346 13.851 5.37579C13.9479 5.68812 14.0345 5.96576 14.111 6.20868C14.1874 6.45161 14.2409 6.63257 14.2715 6.75155H14.3097C14.4117 6.32519 14.5213 5.87156 14.6385 5.39066C14.7557 4.90481 14.8526 4.42887 14.929 3.96285C15.0258 3.90335 15.1405 3.87361 15.273 3.87361C15.3801 3.87361 15.4667 3.8984 15.533 3.94797C15.6043 3.99259 15.64 4.06944 15.64 4.17851C15.64 4.238 15.6222 4.34707 15.5865 4.50571C15.5559 4.6594 15.5151 4.84036 15.4642 5.04858C15.4132 5.25185 15.3546 5.46999 15.2883 5.703C15.2221 5.93105 15.1558 6.15415 15.0896 6.37229C15.0233 6.58547 14.9596 6.77882 14.8984 6.95234C14.8424 7.12586 14.7914 7.26219 14.7455 7.36135C14.7098 7.39109 14.6512 7.41588 14.5697 7.43571C14.4881 7.4605 14.3989 7.47289 14.3021 7.47289C14.0371 7.47289 13.8816 7.41092 13.8357 7.28698C13.7695 7.12338 13.693 6.91763 13.6064 6.66975C13.5248 6.42186 13.4382 6.15415 13.3464 5.8666C13.2598 5.5741 13.1757 5.28407 13.0941 4.99653Z" fill="currentColor"/>
<path fill-rule="evenodd" clip-rule="evenodd" d="M3.09836 1.03279H14.9016C16.0424 1.03279 16.9672 1.95758 16.9672 3.09836V8.26229C16.9672 9.40308 16.0424 10.3279 14.9016 10.3279H3.09836C1.95758 10.3279 1.03279 9.40308 1.03279 8.26229V3.09836C1.03279 1.95758 1.95758 1.03279 3.09836 1.03279ZM3.09836 0C1.38718 0 0 1.38718 0 3.09836V8.26229C0 9.97347 1.38718 11.3607 3.09836 11.3607H14.9016C16.6128 11.3607 18 9.97347 18 8.26229V3.09836C18 1.38718 16.6128 0 14.9016 0H3.09836ZM14.9016 0.885246H3.09836C1.91429 0.885246 0.9474 1.81513 0.888126 2.98447C0.947356 1.81509 1.91426 0.885158 3.09836 0.885158H14.9016C16.1239 0.885158 17.1148 1.876 17.1148 3.09827V8.26221C17.1148 8.26224 17.1148 8.26227 17.1148 8.26229V3.09836C17.1148 1.87609 16.1239 0.885246 14.9016 0.885246ZM0.147728 3.0648C0.147603 3.07597 0.147541 3.08716 0.147541 3.09836V8.26229C0.147541 9.89199 1.46867 11.2131 3.09836 11.2131H14.9016C16.3276 11.2131 17.5174 10.2016 17.7925 8.85699C17.5173 10.2016 16.3276 11.213 14.9016 11.213H3.09836C1.46867 11.213 0.147544 9.8919 0.147544 8.26221V3.09827C0.147544 3.0871 0.147604 3.07594 0.147728 3.0648Z" fill="currentColor"/>
</svg>
