<svg width="38" height="38" viewBox="0 0 38 38" fill="currentColor" xmlns="http://www.w3.org/2000/svg">
<path d="M36.4166 19.0843C36.3999 21.3771 35.933 23.644 35.0424 25.7558C34.1518 27.8676 32.8549 29.7829 31.2259 31.3923C29.5969 33.0017 27.6676 34.2737 25.5481 35.1357C23.4287 35.9977 21.1607 36.4328 18.8735 36.4161C16.5864 36.3995 14.3249 35.9314 12.2182 35.0386C10.1115 34.1458 8.20084 32.8458 6.59534 31.2128C4.98983 29.5799 3.7209 27.6459 2.86101 25.5213C2.00111 23.3968 1.56709 21.1232 1.58371 18.8305C1.69626 9.255 9.47597 1.55512 19.1127 1.58333C28.7494 1.61153 36.4306 9.48065 36.4166 19.0843ZM3.22969 23.2727L4.11599 22.4548C4.39735 22.1869 4.67872 21.8907 4.96008 21.6087C5.02537 21.5555 5.07447 21.485 5.10183 21.4052C5.12918 21.3254 5.13368 21.2396 5.11483 21.1574C4.56617 17.2651 5.4384 13.7396 7.77372 10.5806C8.13949 10.0729 8.44899 10.0588 8.88511 10.5101L27.5114 29.1675C27.9616 29.6188 27.9475 29.929 27.427 30.3098C24.2616 32.6367 20.7446 33.4969 16.8618 32.9751C16.7879 32.9706 16.7138 32.9807 16.6438 33.0049C16.5738 33.0291 16.5092 33.0669 16.4538 33.1162C15.877 33.6662 15.3283 34.2444 14.7797 34.7944C20.2241 36.3597 27.1597 34.8367 31.6334 29.3508C35.6147 24.4714 35.8538 18.3792 34.6862 14.8818C34.2923 15.2626 33.8843 15.6998 33.4341 16.0664C32.9839 16.4331 32.7448 16.8703 32.9558 17.4767C32.9797 17.6164 32.9891 17.7581 32.9839 17.8997C33.2653 21.4676 32.3227 24.683 30.1844 27.5599C29.8608 27.997 29.5372 28.0252 29.1433 27.6304L10.4467 8.88834C10.0387 8.47938 10.0528 8.16912 10.4889 7.83067C11.9998 6.68161 13.7275 5.85165 15.5675 5.39096C17.389 4.93616 19.282 4.84512 21.1385 5.12302C21.2451 5.14347 21.3554 5.12336 21.448 5.06661C22.0529 4.48841 22.6297 3.88201 23.2628 3.2474C17.2135 1.87948 11.8676 3.13459 7.49236 7.52042C3.11715 11.9062 1.87914 17.2651 3.22969 23.2727ZM17.2838 14.1344C17.5652 14.4306 17.8747 14.7408 18.1983 15.0511C18.2881 15.1152 18.3978 15.1452 18.5078 15.1357C21.0682 14.8113 23.2487 16.9831 22.897 19.5215C22.8834 19.63 22.9083 19.7398 22.9674 19.8318L23.8537 20.7625C25.9639 18.6472 28.046 16.5741 30.0859 14.5152L23.4879 7.90118L17.2838 14.1344ZM7.90033 23.5407L14.4983 30.1547L20.7024 23.9497C20.421 23.6676 20.1256 23.3574 19.802 23.0612C19.7061 22.9865 19.5854 22.9512 19.4644 22.9625C16.9462 23.3009 14.7515 21.101 15.0892 18.5626C15.0993 18.5142 15.0995 18.4642 15.0898 18.4158C15.0801 18.3673 15.0608 18.3213 15.0329 18.2805C14.7234 17.9279 14.3998 17.6036 14.1185 17.3074C11.9989 19.4228 9.92616 21.5005 7.90033 23.5407V23.5407ZM33.2653 14.5998L23.4738 4.77046C20.9134 7.33709 18.3249 9.94602 15.7504 12.5126L16.5101 13.2601C16.5723 13.1733 16.643 13.093 16.7211 13.0203L22.897 6.8153C23.3754 6.33582 23.6004 6.33582 24.0928 6.8294L31.1832 13.937C31.6756 14.4306 31.6756 14.6562 31.1832 15.1357L25.0073 21.3266C24.908 21.4056 24.7993 21.4719 24.6837 21.524L24.8525 21.5523L25.5419 22.342L33.2653 14.5998ZM14.4561 33.3559L22.2499 25.5573L21.5043 24.7535C21.4313 24.8709 21.3514 24.9839 21.2651 25.0919C19.2112 27.1509 17.1431 29.2098 15.0892 31.2829C14.6109 31.7482 14.3858 31.7482 13.9215 31.2829L6.84522 24.1894C6.29656 23.6394 6.29656 23.4561 6.83115 22.9202L13.0071 16.7292L13.204 16.5177L12.4866 15.7985L4.72092 23.5971L14.4561 33.3559ZM20.2944 6.16659C17.115 5.87044 14.231 6.61787 11.6565 8.38066L14.8641 11.596L20.2944 6.16659ZM8.39272 11.6524C6.62223 14.1707 5.82252 17.247 6.14181 20.3112L11.5721 14.8536L8.39272 11.6524ZM17.7059 31.9316C20.7583 32.2483 23.8229 31.4578 26.3437 29.7034L23.1362 26.474L17.7059 31.9316ZM29.6216 26.4176C31.3942 23.8086 32.1539 20.9176 31.8444 17.7587L26.4141 23.2022L29.6216 26.4176ZM24.1772 3.57176L34.433 13.8524C33.5422 11.1587 31.9548 8.74995 29.8327 6.87171C28.1987 5.38712 26.272 4.26289 24.1772 3.57176V3.57176ZM13.823 34.4982L3.56733 24.2317C4.28481 28.1239 10.0246 33.8777 13.823 34.4982ZM16.285 19.6061C16.3553 20.6215 17.4948 21.7074 18.4233 21.7638L16.285 19.6061ZM21.7012 18.4779C21.6309 17.4908 20.5476 16.4049 19.5629 16.3344L21.7012 18.4779Z" fill="currentColor"/>
</svg>
