<svg width="40" height="32" viewBox="0 0 40 32" fill="none" xmlns="http://www.w3.org/2000/svg">
<path d="M34.2438 30.4707C34.2438 30.685 34.2591 30.8994 34.2438 31.0984C34.2438 31.1728 34.2292 31.2464 34.2007 31.3151C34.1722 31.3839 34.1305 31.4463 34.0779 31.4989C34.0253 31.5515 33.9629 31.5932 33.8941 31.6217C33.8254 31.6501 33.7518 31.6648 33.6774 31.6648C33.603 31.6648 33.5293 31.6501 33.4606 31.6217C33.3919 31.5932 33.3295 31.5515 33.2769 31.4989C33.2243 31.4463 33.1825 31.3839 33.1541 31.3151C33.1256 31.2464 33.1109 31.1728 33.1109 31.0984C33.0956 30.0727 33.0956 29.0623 33.1109 28.0366C33.1108 27.9595 33.1264 27.8833 33.1568 27.8125C33.1872 27.7417 33.2316 27.6778 33.2875 27.6248C33.3434 27.5718 33.4095 27.5307 33.4818 27.5041C33.5541 27.4775 33.6311 27.466 33.708 27.4701C33.7817 27.4721 33.8543 27.4888 33.9215 27.5193C33.9886 27.5498 34.049 27.5935 34.0989 27.6477C34.1489 27.702 34.1875 27.7657 34.2123 27.8351C34.2372 27.9045 34.2479 27.9782 34.2438 28.0519C34.2591 28.4346 34.2438 28.8326 34.2438 29.2919H36.7392C36.7392 28.2815 36.8004 27.3017 36.7239 26.3373C36.6779 25.6637 36.234 25.1738 35.591 24.9135L32.866 23.8266C32.7038 23.7914 32.5343 23.8187 32.3914 23.9032L30.2022 25.3575C29.2531 25.9699 28.3039 25.9546 27.3701 25.3422L25.2115 23.9032C25.1366 23.8385 25.0438 23.798 24.9455 23.7871C24.8471 23.7761 24.7477 23.7953 24.6604 23.8419C23.8184 24.194 22.9611 24.5155 22.1038 24.8523C21.2465 25.1891 20.8179 25.8474 20.8025 26.7659V29.2613H23.3285C23.3285 28.9092 23.3132 28.5571 23.3285 28.205C23.3438 27.8529 23.5582 27.4548 23.9103 27.4701C24.2624 27.4855 24.4767 27.7304 24.4767 28.1897V30.9759C24.4767 31.4199 24.2624 31.6648 23.895 31.6648C23.5275 31.6648 23.3285 31.4045 23.3285 30.9912C23.3132 30.8228 23.3285 30.6544 23.3285 30.4707H21.4149V31.0984C21.4191 31.1693 21.4087 31.2402 21.3844 31.307C21.3601 31.3737 21.3225 31.4348 21.2737 31.4864C21.225 31.538 21.1662 31.5791 21.1009 31.6072C21.0357 31.6352 20.9654 31.6496 20.8944 31.6495C20.822 31.658 20.7485 31.652 20.6784 31.6319C20.6083 31.6119 20.5428 31.5781 20.4859 31.5325C20.4289 31.4869 20.3816 31.4305 20.3466 31.3665C20.3116 31.3025 20.2897 31.2322 20.282 31.1596C20.2693 31.0632 20.2642 30.9659 20.2667 30.8687C20.2974 30.5319 20.2667 30.2564 19.9759 30.0267C19.7985 29.8587 19.6941 29.6279 19.685 29.3838C19.634 28.3277 19.6442 27.2696 19.7156 26.2148C19.8228 25.0513 20.527 24.2706 21.5986 23.8266L25.2421 22.3723C25.5943 22.2345 25.8086 22.0048 25.7626 21.6068C25.2757 21.5971 24.79 21.5562 24.3083 21.4843C23.5455 21.3228 22.86 20.9072 22.3641 20.3056C22.2366 20.1746 22.0701 20.0886 21.8895 20.0606C19.9912 19.8922 18.644 18.591 18.4603 16.7233C18.4253 16.4993 18.4744 16.2703 18.5981 16.0803C19.3482 15.0393 19.6084 13.8452 19.6391 12.5898C19.6697 11.3345 19.6544 9.94139 19.6544 8.60951C19.6697 4.70573 22.2416 1.53678 26.0688 0.74071C26.3998 0.661421 26.7388 0.620326 27.0792 0.618236C28.457 0.618236 29.8501 0.557001 31.1973 0.71009C34.4275 1.0622 37.1984 3.77188 37.7649 6.97145C37.8545 7.52346 37.9056 8.08103 37.918 8.64013C37.9486 10.171 37.9333 11.7172 38.0098 13.2634C38.0438 14.2752 38.3856 15.2525 38.9896 16.065C39.1062 16.2691 39.1544 16.5051 39.1274 16.7386C39.0562 17.5955 38.6805 18.3986 38.0683 19.0024C37.4561 19.6062 36.6478 19.9707 35.79 20.03C35.6726 20.0371 35.5578 20.0679 35.4526 20.1205C35.3473 20.1731 35.2538 20.2465 35.1777 20.3362C34.8263 20.7591 34.3791 21.0923 33.8733 21.3079C33.3674 21.5236 32.8174 21.6155 32.269 21.5762H31.8556C31.7944 21.9895 31.9168 22.1886 32.3455 22.3723L35.8513 23.7654C37.2291 24.3165 37.918 25.3269 37.918 26.7966V29.1694C37.9241 29.3663 37.8861 29.562 37.8066 29.7421C37.7271 29.9223 37.6082 30.0823 37.4587 30.2104C37.3745 30.2905 37.325 30.4005 37.3209 30.5166C37.2903 30.7156 37.3209 30.93 37.3056 31.129C37.3057 31.2 37.2913 31.2703 37.2633 31.3355C37.2352 31.4007 37.1941 31.4595 37.1425 31.5083C37.0909 31.5571 37.0298 31.5947 36.9631 31.619C36.8964 31.6433 36.8254 31.6537 36.7545 31.6495C36.6816 31.6558 36.6083 31.6471 36.5389 31.624C36.4695 31.6008 36.4056 31.5637 36.3511 31.515C36.2966 31.4662 36.2527 31.4068 36.222 31.3404C36.1913 31.274 36.1746 31.2021 36.1727 31.129C36.1597 31.0172 36.1545 30.9047 36.1574 30.7922C36.1596 30.6848 36.1545 30.5774 36.1421 30.4707H34.2438ZM33.0956 9.2678H32.7282C31.7178 9.22187 30.7074 9.20656 29.7124 9.0994C28.3499 8.96162 27.0792 8.48704 25.8239 7.95122C25.0125 7.61443 24.3848 7.9053 24.4767 8.79322C24.492 9.03816 24.4767 9.29842 24.4767 9.54336C24.4614 10.7834 23.7419 11.5029 22.5018 11.5182C22.129 11.5055 21.7558 11.5157 21.3843 11.5488C21.2326 11.5602 21.0905 11.6276 20.9858 11.738C20.8811 11.8484 20.8212 11.9938 20.8179 12.1459C20.8135 12.3073 20.8715 12.4642 20.9799 12.584C21.0882 12.7037 21.2385 12.7771 21.3996 12.7889H21.8589C22.7927 12.8042 23.2061 13.1563 23.3132 14.0901C23.6806 17.2897 26.9414 19.5554 30.0798 18.7287C32.5445 18.0858 33.9223 16.4324 34.305 13.9217C34.4275 13.1563 34.8102 12.8195 35.591 12.7889H36.0043C36.4789 12.7735 36.7545 12.5439 36.7698 12.1612C36.7851 11.7785 36.4789 11.5182 35.989 11.5029C35.4991 11.4876 35.2848 11.5182 34.9174 11.5029C33.9836 11.457 33.2793 10.8752 33.1263 9.98732C33.1005 9.7484 33.0902 9.50805 33.0956 9.2678V9.2678ZM36.6932 10.3547C36.6932 9.48212 36.7698 8.51766 36.6779 7.5532C36.4177 4.75166 33.9529 2.19506 31.1361 1.85826C29.8954 1.72802 28.6463 1.69731 27.4007 1.76641C24.5379 1.87357 22.5172 3.31261 21.3384 5.89983C20.6801 7.33887 20.7872 8.88507 20.8179 10.4007C20.8179 10.4313 20.8485 10.4466 20.8332 10.416L22.0426 10.3547C23.2979 10.3547 23.3438 10.3241 23.3132 9.06878C23.2979 8.22679 23.4051 7.46134 24.1858 6.95614C23.8184 6.61935 23.4816 6.32848 23.1601 5.99168C23.1068 5.93695 23.0654 5.87172 23.0386 5.80014C23.0119 5.72856 23.0003 5.65219 23.0046 5.57589C23.0089 5.49959 23.029 5.42502 23.0637 5.35692C23.0984 5.28881 23.1469 5.22867 23.2061 5.18031C23.3177 5.08318 23.4622 5.03228 23.6101 5.03797C23.7581 5.04366 23.8982 5.10551 24.0021 5.21092C24.1552 5.36401 24.3083 5.53241 24.4767 5.67019C26.3597 7.26232 28.6101 7.96654 31.0442 8.08901C32.269 8.13494 33.4937 7.99716 34.7337 7.93592C35.1623 7.92061 35.4226 8.0737 35.4685 8.41049C35.5145 8.74729 35.2848 9.02286 34.8562 9.08409L34.2744 9.17594C34.1979 10.171 34.3663 10.3547 35.3001 10.3547H36.6932ZM25.7473 20.3209C25.76 20.2502 25.7652 20.1783 25.7626 20.1065C25.778 19.9129 25.778 19.7184 25.7626 19.5248C25.7518 19.469 25.73 19.4159 25.6985 19.3686C25.6669 19.3213 25.6263 19.2807 25.5789 19.2492C23.6347 18.1011 22.4712 16.4477 22.165 14.1973C22.1502 14.147 22.1247 14.1005 22.0904 14.0609C22.0561 14.0213 22.0137 13.9895 21.966 13.9676C21.5527 13.9217 21.124 13.9064 20.7107 13.8758C20.6013 14.3415 20.4685 14.8013 20.3127 15.2536C20.1443 15.6976 19.8687 16.1109 19.6697 16.5549C19.6233 16.7097 19.6233 16.8746 19.6697 17.0294C19.9146 18.1317 20.9709 18.9584 22.0885 18.8818C22.5631 18.8665 22.8693 18.9737 23.1295 19.387C23.7113 20.2596 24.8594 20.6423 25.7473 20.3209ZM36.8923 13.8605C36.5166 13.9121 36.1384 13.9427 35.7594 13.9523C35.4991 13.9523 35.4379 14.0595 35.4073 14.2891C35.0858 16.4324 33.9836 18.0551 32.1159 19.1727C31.8709 19.3105 31.7638 19.4636 31.8097 19.7391C31.825 19.8509 31.825 19.9642 31.8097 20.0759C31.7791 20.3056 31.8862 20.3974 32.1006 20.4127C33.0956 20.5199 33.9223 20.1831 34.4734 19.3564C34.5648 19.1903 34.7045 19.056 34.8741 18.9712C35.0436 18.8864 35.2349 18.8553 35.4226 18.8818C36.0251 18.9157 36.6188 18.7246 37.0884 18.3456C37.5579 17.9665 37.87 17.4265 37.9639 16.8304C37.9752 16.7294 37.9537 16.6274 37.9027 16.5395C37.3515 15.7282 37.076 14.8096 36.8923 13.8605ZM26.9567 19.8157C26.7424 20.9485 27.3548 22.2345 26.1913 23.1836C26.8955 23.6429 27.5538 24.1328 28.2733 24.5002C28.431 24.5745 28.6026 24.6143 28.7769 24.6169C28.9511 24.6196 29.1239 24.585 29.2837 24.5155C30.0032 24.1481 30.6768 23.6582 31.4117 23.1836C30.7381 22.6478 30.6156 21.9742 30.6615 21.2241C30.6768 20.7648 30.6615 20.2902 30.6615 19.8004C29.4499 20.1346 28.1711 20.1398 26.9567 19.8157V19.8157Z" fill="#FF2E6D"/>
<path d="M15.9037 13.9675C15.7506 15.376 15.2914 16.6313 14.3575 17.6417C13.8217 18.2234 13.1481 18.698 12.5051 19.2032C12.4248 19.2458 12.358 19.3098 12.312 19.3882C12.266 19.4667 12.2428 19.5563 12.2449 19.6472C12.2602 20.2901 12.2602 20.9178 12.2449 21.5608C12.2302 21.7386 12.2768 21.9162 12.3771 22.0638C12.4774 22.2114 12.6252 22.3203 12.796 22.3721C14.0207 22.8467 15.2454 23.3366 16.4395 23.8418C17.6336 24.347 18.3378 25.3268 18.3531 26.6893C18.3685 27.516 18.3531 28.3426 18.3685 29.1693C18.3769 29.3665 18.3399 29.5629 18.2602 29.7434C18.1806 29.9239 18.0605 30.0837 17.9092 30.2103C17.8187 30.3063 17.7646 30.4308 17.7561 30.5624C17.7255 30.7461 17.7561 30.9145 17.7408 31.0983C17.7451 31.1725 17.7339 31.2467 17.7079 31.3164C17.6819 31.386 17.6417 31.4495 17.5899 31.5028C17.5381 31.556 17.4757 31.5979 17.4068 31.6258C17.3379 31.6537 17.264 31.6669 17.1897 31.6647C17.042 31.6689 16.8985 31.6152 16.7898 31.5151C16.6811 31.415 16.6159 31.2764 16.6079 31.1289C16.5926 30.9145 16.6079 30.7002 16.6079 30.4706H14.6943C14.6943 30.6849 14.7096 30.8839 14.6943 31.0829C14.679 31.282 14.48 31.6494 14.1585 31.6647C14.0824 31.6711 14.0057 31.6615 13.9335 31.6367C13.8612 31.6119 13.7949 31.5723 13.7388 31.5204C13.6826 31.4686 13.6379 31.4057 13.6073 31.3356C13.5768 31.2656 13.5612 31.19 13.5614 31.1136C13.5308 30.6696 13.5461 30.2409 13.5461 29.8123V28.2049C13.5461 27.7456 13.7758 27.4547 14.1432 27.47C14.5106 27.4853 14.6943 27.7303 14.6943 28.1896V29.2612H17.1897C17.1897 28.2661 17.2356 27.271 17.1744 26.2912C17.1284 25.6483 16.6845 25.189 16.0721 24.9287C15.4598 24.6685 14.9239 24.4542 14.3422 24.2398C14.2057 24.1959 14.0574 24.2069 13.9289 24.2705C10.8058 26.0157 7.68281 26.0004 4.54447 24.2705C4.41592 24.2069 4.26764 24.1959 4.13113 24.2398C3.59531 24.4389 3.04419 24.6532 2.50838 24.8828C1.97256 25.1125 1.29897 25.7401 1.28366 26.5668C1.26835 27.3935 1.26835 28.3426 1.26835 29.2612H3.76371C3.76371 28.9091 3.76371 28.557 3.77902 28.2049C3.79433 27.8528 3.79433 27.8374 3.88618 27.7456C4.04648 27.6 4.25175 27.5135 4.46792 27.5006C4.5296 27.5026 4.59026 27.5169 4.64628 27.5428C4.7023 27.5687 4.75253 27.6056 4.79396 27.6513C4.8354 27.697 4.8672 27.7506 4.88746 27.8089C4.90772 27.8672 4.91603 27.929 4.91189 27.9905C4.91189 29.0315 4.92719 30.0726 4.91189 31.1289C4.91189 31.4504 4.71287 31.6341 4.37607 31.6494C4.30578 31.6628 4.2334 31.6607 4.16402 31.6431C4.09464 31.6256 4.02995 31.593 3.9745 31.5478C3.91905 31.5025 3.87418 31.4457 3.84306 31.3813C3.81193 31.3168 3.7953 31.2464 3.79433 31.1748C3.76277 30.9414 3.74743 30.7061 3.7484 30.4706H1.8654C1.8654 30.7002 1.88071 30.8992 1.8654 31.1136C1.86546 31.2571 1.8095 31.395 1.70943 31.498C1.60936 31.6009 1.47309 31.6607 1.32959 31.6647C1.25596 31.6709 1.18182 31.6623 1.11159 31.6394C1.04135 31.6164 0.976456 31.5795 0.920756 31.531C0.865055 31.4824 0.81969 31.4231 0.787356 31.3567C0.755022 31.2902 0.73638 31.218 0.73254 31.1442C0.712593 31.0589 0.707414 30.9709 0.71723 30.8839C0.74464 30.7221 0.73097 30.556 0.677472 30.4009C0.623975 30.2457 0.532364 30.1065 0.411051 29.996C0.23556 29.8142 0.132178 29.5748 0.120182 29.3224C0.104873 28.3273 0.0742546 27.3323 0.150799 26.3372C0.227344 25.3421 0.900939 24.3164 2.00318 23.8571C3.10543 23.3978 4.40669 22.8773 5.60079 22.4028C6.1366 22.1884 6.21315 22.066 6.21315 21.5148V19.6472C6.22358 19.5548 6.20575 19.4615 6.16202 19.3795C6.11828 19.2975 6.0507 19.2307 5.9682 19.1879C3.97804 18.0397 2.87579 16.3098 2.56962 13.9828H2.0338C0.809085 13.9522 0.196727 13.1715 0.0895645 11.9621C0.0309088 11.1798 0.129817 10.3937 0.380434 9.6504C0.410627 9.44032 0.394958 9.22619 0.334506 9.02274C0.257962 8.71656 0.150798 8.41038 0.0589448 8.1042C-0.0114065 7.85159 -0.0188884 7.58561 0.0371479 7.32944C0.0931842 7.07327 0.211038 6.83471 0.380434 6.63454L0.472288 6.52738C0.784154 6.27457 1.03838 5.95801 1.21792 5.59893C1.39746 5.23985 1.49817 4.84654 1.5133 4.44536C1.55922 3.64929 2.07973 3.1441 2.81456 2.92977C3.13433 2.84695 3.43312 2.69785 3.69158 2.49214C3.95003 2.28643 4.16237 2.02871 4.31484 1.73568C4.82003 0.80183 5.67733 0.648739 6.61118 0.801829C6.82202 0.849212 7.04061 0.850489 7.25198 0.805571C7.46336 0.760653 7.66254 0.670598 7.8359 0.541575L8.06553 0.388485C8.84629 -0.132019 9.64235 -0.132018 10.4231 0.403795C10.913 0.740592 11.4029 0.908992 12.0306 0.801829C13.0563 0.602812 13.8217 1.01615 14.2963 1.93469C14.4053 2.15774 14.5618 2.3542 14.7549 2.51024C14.948 2.66629 15.1729 2.77814 15.4138 2.83792C16.5008 3.11348 17.0213 3.84831 17.0519 4.93525C17.0506 5.14692 17.0951 5.35636 17.1823 5.54924C17.2695 5.74212 17.3974 5.91389 17.5571 6.0528C17.7013 6.17901 17.8344 6.31729 17.9551 6.46614C18.445 6.98665 18.644 7.599 18.3685 8.25729C18.0573 9.0007 18.0518 9.83681 18.3531 10.5843C18.4909 10.9057 18.3838 11.3191 18.3838 11.7018C18.3838 11.809 18.3531 11.9161 18.3531 12.0386C18.3685 13.1868 17.6642 13.9216 16.5161 13.9675H15.9037ZM9.22901 7.85926H5.67733C5.15683 7.87457 4.9425 8.07358 4.92719 8.59409C4.91188 9.11459 4.92719 9.23706 4.92719 9.55855C4.91188 10.7986 4.19236 11.5028 2.93703 11.5181C2.61554 11.5181 2.27874 11.5028 1.95726 11.5334C1.63577 11.564 1.26835 11.809 1.26835 12.1611C1.26835 12.5132 1.5286 12.7734 1.97256 12.8041H2.46245C3.2279 12.8347 3.65655 13.248 3.7484 13.9981C3.77432 14.2352 3.81523 14.4704 3.87088 14.7024C4.19323 15.9856 4.96168 17.1123 6.03874 17.8809C7.1158 18.6494 8.43118 19.0096 9.74951 18.897C12.2449 18.7133 14.3728 16.6772 14.7402 14.0135C14.8627 13.1562 15.2454 12.8194 16.1027 12.8041H16.4089C16.9294 12.7887 17.205 12.5744 17.205 12.1764C17.205 11.7783 16.9294 11.5334 16.4089 11.5181C15.8884 11.5028 15.7353 11.5181 15.4138 11.5181C14.2963 11.4875 13.5614 10.7373 13.5461 9.61979V8.67063C13.5461 8.05827 13.3471 7.85926 12.7501 7.85926H9.22901ZM1.36021 10.3546C1.94195 10.3546 2.46245 10.3699 2.98296 10.3546C3.50346 10.3393 3.76371 10.1403 3.76371 9.57386C3.77902 9.25237 3.76371 8.93089 3.76371 8.62471C3.77902 7.44592 4.51385 6.71109 5.67733 6.69578H12.7807C13.9748 6.71109 14.679 7.43061 14.6943 8.6094C14.6943 8.9615 14.679 9.31361 14.6943 9.66571C14.7096 10.0178 14.9546 10.3393 15.3679 10.3546C15.7812 10.3699 16.5314 10.3546 17.1284 10.3546C16.9839 10.045 16.9103 9.7071 16.9129 9.36546C16.9156 9.02381 16.9944 8.68707 17.1437 8.37976C17.4193 7.7674 17.3121 7.30813 16.7916 6.87948C16.5191 6.65709 16.2995 6.37689 16.1485 6.05917C15.9976 5.74145 15.9192 5.39415 15.919 5.04241C15.8884 4.43005 15.6588 4.04732 15.0311 3.89424C14.6681 3.81363 14.3281 3.65195 14.0365 3.4213C13.7448 3.19064 13.5092 2.897 13.3471 2.56236C13.0563 1.96531 12.6123 1.79691 11.9999 1.93469C11.6573 2.00987 11.3023 2.00765 10.9606 1.9282C10.619 1.84875 10.2994 1.69406 10.0251 1.47542C9.48926 1.07739 8.99938 1.07739 8.46356 1.47542C8.18286 1.69884 7.85542 1.85615 7.50558 1.93566C7.15574 2.01517 6.79248 2.01484 6.44278 1.93469C6.316 1.91628 6.18816 1.90605 6.06006 1.90407C5.90833 1.87423 5.75096 1.89751 5.61436 1.96999C5.47777 2.04247 5.37027 2.15974 5.30992 2.3021C5.10383 2.7257 4.80589 3.09803 4.43778 3.39198C4.06968 3.68593 3.64067 3.89413 3.18197 4.0014C3.01728 4.03411 2.8697 4.12459 2.76584 4.25652C2.66198 4.38846 2.60868 4.55316 2.61554 4.72092C2.61667 5.17453 2.51699 5.62272 2.32372 6.03309C2.13045 6.44347 1.84841 6.80577 1.49799 7.09381C1.16119 7.36937 1.08465 7.70617 1.25304 8.11951C1.55922 8.85434 1.697 9.60448 1.36021 10.3546ZM5.75388 23.5662C7.74404 24.7297 11.0355 24.6226 12.7041 23.5509C11.3723 23.2141 11.0048 22.265 11.0967 21.0403C11.1273 20.6422 11.0967 20.2442 11.0967 19.8155C9.87194 20.1394 8.58339 20.1341 7.36132 19.8002C7.36132 20.2289 7.34601 20.6116 7.37663 20.9943C7.46848 22.2344 7.14699 23.2141 5.75388 23.5662Z" fill="#FF2E6D"/>
</svg>
