<svg width="346" height="81" fill="none" xmlns="http://www.w3.org/2000/svg"><g clip-path="url(#a)"><path d="M13.762 31.198H0v48.803h13.762V31.198z" fill="#3C6"/><path d="M48.8 31.198a17.411 17.411 0 0 1-5.078 12.38 17.8 17.8 0 0 1-12.427 5.234c-8.324.055-16.288 3.366-22.152 9.21C3.28 63.866-.007 71.767 0 80.001h13.762a17.44 17.44 0 0 1 5.093-12.378 17.83 17.83 0 0 1 12.43-5.237c8.324-.052 16.287-3.363 22.149-9.208 5.861-5.845 9.143-13.748 9.128-21.98H48.8z" fill="#009"/><path d="M31.286-.009C22.963.046 15 3.357 9.14 9.201 3.28 15.047-.003 22.949.01 31.18h13.752a17.42 17.42 0 0 1 5.084-12.38 17.81 17.81 0 0 1 12.43-5.234c4.68.05 9.151 1.93 12.433 5.231A17.411 17.411 0 0 1 48.79 31.18h13.762c.016-8.23-3.265-16.132-9.124-21.977-5.86-5.844-13.82-9.156-22.142-9.211z" fill="#39F"/><path d="m239.848 27.402-5.029 6.066a11.815 11.815 0 0 0-8.2-3.438c-2.581 0-3.914.876-3.914 2.562 0 1.385.952 2.12 3.809 3.212l3.553 1.46c7.085 2.826 10.266 5.699 10.266 11.04a9.927 9.927 0 0 1-.968 4.738 10.054 10.054 0 0 1-3.098 3.74 16.24 16.24 0 0 1-10.191 3.07c-6.505 0-11.524-2.336-15.143-7.018l5.019-5.99c3.181 3.287 6.667 4.898 10.267 4.898 2.657 0 4.657-1.027 4.657-2.996 0-1.535-1.038-2.119-3.809-3.287l-3.915-1.61c-6.723-2.704-9.971-5.7-9.971-11.031 0-6.791 5.467-10.889 13.448-10.889 5.514-.01 9.885 1.818 13.219 5.473zm-72.153-4.314h-9.162v3.909c-5.057-6.236-17.657-6.83-24.514.556-6.543 7.036-6.857 19.78 0 27.156 6.857 7.376 19.448 6.782 24.505.546v3.91h9.162l.009-36.077zm-19.047 27.966c-12.6 0-12.619-19.856 0-19.856 12.285 0 12.333 19.856 0 19.856zm-62.8 19.386H95V55.282c5.067 6.236 17.667 6.83 24.514-.546 6.848-7.375 6.543-20.12 0-27.166-6.857-7.375-19.457-6.782-24.514-.546v-3.91h-9.143l-.01 47.325zm19.047-39.214c12.61 0 12.591 19.856 0 19.856-12.333 0-12.276-19.856.019-19.856h-.019zM345.981 22.9h-9.162v3.908c-5.067-6.235-17.657-6.829-24.514.556-6.543 7.046-6.857 19.781 0 27.157 6.857 7.375 19.447 6.791 24.505.546v3.909h9.161l.01-36.077zm-19.048 27.966c-12.59 0-12.609-19.857 0-19.857 12.286 0 12.334 19.847-.009 19.847l.009.01zm-125.79-28.033-9.524 23.747-8.943-23.747h-10.533l14 34.052c-.438 2.43-2.41 5.133-8.905 5.228v8.524c8.438.575 14.752-3.711 17.724-10.446l16.676-37.386-10.495.028zm103.238 8.94v-9.42a21.702 21.702 0 0 0-3.086-.236 16.57 16.57 0 0 0-6.455 1.099 16.44 16.44 0 0 0-5.507 3.508 16.436 16.436 0 0 0-3.669 5.632 16.294 16.294 0 0 0-1.093 6.613v20.242h9.981V38.49a6.597 6.597 0 0 1 1.884-4.955 6.721 6.721 0 0 1 2.26-1.52 6.784 6.784 0 0 1 2.685-.505c1.005.01 2.008.098 3 .264zm-41.829-9.797a19.324 19.324 0 0 0-10.659 3.225 19.006 19.006 0 0 0-7.043 8.544 18.769 18.769 0 0 0-1.048 10.975 18.901 18.901 0 0 0 5.303 9.697c7.981 7.583 21.676 6.716 28.676.942l-3.81-7.018c-5.238 3.985-17.942 5.379-20.552-4.172h26.124c.247-3.636.876-8.883-1.905-13.828-4.609-8.308-13.181-8.365-15.086-8.365zm-.371 7.969c4.2 0 7.552 2.666 7.857 6.848h-16.486c1.286-4.182 4.572-6.848 8.629-6.848z" fill="#009"/></g><defs><clipPath id="a"><path fill="#fff" transform="translate(0 .01)" d="M0 0h345.981v80H0z"/></clipPath></defs></svg>