<svg width="19" height="18" viewBox="0 0 19 18" fill="none" xmlns="http://www.w3.org/2000/svg">
<path fill-rule="evenodd" clip-rule="evenodd" d="M13.8855 0.81398C14.455 0.244465 15.3784 0.244467 15.9479 0.813981L18.1027 2.9688C18.6722 3.53832 18.6722 4.46168 18.1027 5.0312L15.7753 7.35861L15.7649 7.36876L6.7415 15.982C6.57665 16.1394 6.3772 16.2559 6.15917 16.3223L1.55699 17.7229C1.33617 17.7901 1.09629 17.7302 0.933074 17.5669C0.76986 17.4037 0.709889 17.1638 0.777095 16.943L2.17176 12.3605C2.2448 12.1206 2.37851 11.9035 2.55997 11.7303L11.5632 3.13625L13.8855 0.81398ZM11.9899 4.45706L3.42306 12.6345C3.39714 12.6592 3.37804 12.6902 3.36761 12.7245L2.31414 16.1859L5.79522 15.1264C5.82637 15.1169 5.85486 15.1003 5.87841 15.0778L14.4391 6.90627L11.9899 4.45706ZM15.3334 6.03278L17.2188 4.14731C17.3002 4.06595 17.3002 3.93405 17.2188 3.85269L15.064 1.69786C14.9826 1.6165 14.8507 1.61651 14.7694 1.69786L12.8839 3.58333L15.3334 6.03278Z" fill="#FF2E6D"/>
</svg>
