<svg width="19" height="18" viewBox="0 0 19 18" fill="currentColor" xmlns="http://www.w3.org/2000/svg">
<path fill-rule="evenodd" clip-rule="evenodd" d="M6.57203 0.794458C7.31662 0.0498773 8.58075 0.315689 8.96241 1.29709L9.49049 2.65502C9.76176 3.35258 10.195 3.97567 10.7544 4.47291C11.284 4.94374 11.9129 5.28931 12.5943 5.484L15.8936 6.42666C16.9628 6.73213 17.3105 8.0738 16.5242 8.86008L13.3842 12L18.0464 16.6622C18.2905 16.9063 18.2905 17.302 18.0464 17.5461C17.8024 17.7902 17.4066 17.7902 17.1626 17.5461L12.5004 12.8839L9.36041 16.0238C8.57414 16.8101 7.23247 16.4625 6.92699 15.3933L5.98434 12.094C5.78965 11.4126 5.44407 10.7837 4.97324 10.254C4.476 9.69462 3.85292 9.26143 3.15536 8.99016L1.79742 8.46207C0.816024 8.08041 0.550213 6.81628 1.29479 6.0717L6.57203 0.794458ZM12.0626 11.5538C12.0612 11.5552 12.0598 11.5566 12.0584 11.5581C12.057 11.5595 12.0556 11.5609 12.0542 11.5623L8.47653 15.14C8.3642 15.2523 8.17254 15.2026 8.1289 15.0499L7.18625 11.7506C6.94002 10.8888 6.50297 10.0935 5.9075 9.42356C5.27864 8.71609 4.49062 8.16823 3.60842 7.82515L2.25048 7.29706C2.11028 7.24254 2.07231 7.06195 2.17868 6.95558L7.45592 1.67834C7.56229 1.57197 7.74288 1.60995 7.7974 1.75015L8.32549 3.10808C8.66857 3.99029 9.21643 4.7783 9.9239 5.40717C10.5938 6.00263 11.3891 6.43968 12.2509 6.68591L15.5502 7.62856C15.703 7.6722 15.7526 7.86387 15.6403 7.97619L12.0626 11.5538Z" fill="currentColor" />
</svg>
