<svg width="21" height="21" viewBox="0 0 21 21" fill="currentColor" xmlns="http://www.w3.org/2000/svg">
<path d="M8.41732 13.4875V7.51384C8.41732 7.18419 8.782 6.98509 9.0593 7.16335L13.7054 10.1502C13.9606 10.3142 13.9606 10.6871 13.7054 10.8511L9.0593 13.8379C8.782 14.0162 8.41732 13.8171 8.41732 13.4875Z" fill="currentColor"/>
<path fill-rule="evenodd" clip-rule="evenodd" d="M10.5007 2.58398C6.1284 2.58398 2.58398 6.1284 2.58398 10.5007C2.58398 14.8729 6.1284 18.4173 10.5007 18.4173C14.8729 18.4173 18.4173 14.8729 18.4173 10.5007C18.4173 6.1284 14.8729 2.58398 10.5007 2.58398ZM1.33398 10.5007C1.33398 5.43804 5.43804 1.33398 10.5007 1.33398C15.5633 1.33398 19.6673 5.43804 19.6673 10.5007C19.6673 15.5633 15.5633 19.6673 10.5007 19.6673C5.43804 19.6673 1.33398 15.5633 1.33398 10.5007Z" fill="currentColor"/>
</svg>
