<svg width="20" height="20" viewBox="0 0 20 20" fill="none" xmlns="http://www.w3.org/2000/svg">
<path fill-rule="evenodd" clip-rule="evenodd" d="M9.79159 3.75C10.1368 3.75 10.4166 4.02982 10.4166 4.375V9.16667H15.2083C15.5535 9.16667 15.8333 9.44649 15.8333 9.79167C15.8333 10.1368 15.5535 10.4167 15.2083 10.4167H10.4166V15.2083C10.4166 15.5535 10.1368 15.8333 9.79159 15.8333C9.44642 15.8333 9.16659 15.5535 9.16659 15.2083V10.4167H4.375C4.02982 10.4167 3.75 10.1368 3.75 9.79167C3.75 9.44649 4.02982 9.16667 4.375 9.16667H9.16659V4.375C9.16659 4.02982 9.44642 3.75 9.79159 3.75Z" fill="#FF2E6D"/>
</svg>
