<svg width="14" height="18" viewBox="0 0 14 18" fill="currentColor" xmlns="http://www.w3.org/2000/svg">
<path fill-rule="evenodd" clip-rule="evenodd" d="M7.13843 16.1251C10.1829 16.1251 12.4375 13.9956 12.4375 11.0625C12.4375 9.30971 11.6175 8.44596 10.4291 7.19413L10.4129 7.17714C9.33275 6.03929 8.05923 4.66337 7.67669 2.25935C7.18049 2.55128 6.64115 2.99949 6.2431 3.57865C5.65313 4.43704 5.38334 5.55407 6.0814 6.95017C6.53337 7.8541 6.66363 9.0055 5.87361 9.79552C5.38058 10.2886 4.55205 10.6211 3.65649 10.2355C3.09259 9.99262 2.64144 9.51895 2.27831 8.89277C1.85273 9.42263 1.56252 10.1983 1.5625 11.0625C1.56243 13.9476 4.02835 16.1251 7.13843 16.1251ZM8.69906 1.21995C8.68607 0.961394 8.47637 0.751346 8.22497 0.813132C6.47184 1.24399 3.27067 3.84436 5.07518 7.4533C5.4302 8.16334 5.36855 8.70959 5.07811 9.00003C4.5984 9.47974 3.6724 9.51315 2.92116 7.63893C2.82295 7.3939 2.54821 7.25714 2.31923 7.38851C1.15883 8.05423 0.437536 9.5339 0.4375 11.0625C0.437414 14.6843 3.52906 17.2501 7.13843 17.2501C10.7478 17.2501 13.5625 14.6719 13.5625 11.0625C13.5625 8.85852 12.4629 7.70129 11.3081 6.48604C10.1006 5.21523 8.69906 3.87897 8.69906 1.21995Z" fill="currentColor"/>
</svg>
