<svg width="18" height="14" viewBox="0 0 18 14" fill="none" xmlns="http://www.w3.org/2000/svg">
<path d="M4.23744 0.75C2.26497 0.75 0.666016 2.39453 0.666016 4.5C0.666016 6.60547 2.26497 8.25 4.23744 8.25C4.65709 8.25 5.05404 8.15996 5.42792 8.02035V8.25C5.42792 9.62891 4.36021 10.75 3.04697 10.75C2.3896 10.75 1.85649 11.3098 1.85649 12C1.85649 12.6902 2.3896 13.25 3.04697 13.25C5.67271 13.25 7.80887 11.007 7.80887 8.25V4.5C7.80887 2.39453 6.20917 0.75 4.23744 0.75ZM17.3327 4.5C17.3327 2.42891 15.7337 0.75 13.7613 0.75C11.7888 0.75 10.1898 2.42891 10.1898 4.5C10.1898 6.57109 11.7888 8.25 13.7613 8.25C14.1809 8.25 14.5778 8.15996 14.9517 8.02035V8.25C14.9517 9.62891 13.884 10.75 12.5708 10.75C11.9134 10.75 11.3803 11.3098 11.3803 12C11.3803 12.6902 11.9134 13.25 12.5708 13.25C15.1965 13.25 17.3327 11.007 17.3327 8.25V4.5Z" fill="white"/>
</svg>
