<svg width="24" height="24" viewBox="0 0 24 24" fill="none" xmlns="http://www.w3.org/2000/svg">
<path d="M18.5 6.75C18.5 6.33579 18.1642 6 17.75 6C17.3358 6 17 6.33579 17 6.75L17 16.4393L14.7803 14.2197C14.4874 13.9268 14.0126 13.9268 13.7197 14.2197C13.4268 14.5126 13.4268 14.9874 13.7197 15.2803L17.2197 18.7803C17.5126 19.0732 17.9874 19.0732 18.2803 18.7803L21.7803 15.2803C22.0732 14.9874 22.0732 14.5126 21.7803 14.2197C21.4874 13.9268 21.0126 13.9268 20.7197 14.2197L18.5 16.4393V6.75Z" fill="#FF2E6D"/>
<path d="M8 8.56066L8 18.25C8 18.6642 7.66422 19 7.25 19C6.83579 19 6.5 18.6642 6.5 18.25L6.5 8.56066L4.28033 10.7803C3.98744 11.0732 3.51256 11.0732 3.21967 10.7803C2.92678 10.4874 2.92678 10.0126 3.21967 9.71967L6.71967 6.21967C7.01256 5.92678 7.48744 5.92678 7.78033 6.21967L11.2803 9.71967C11.5732 10.0126 11.5732 10.4874 11.2803 10.7803C10.9874 11.0732 10.5126 11.0732 10.2197 10.7803L8 8.56066Z" fill="#FF2E6D"/>
</svg>
