<svg width="16" height="15" viewBox="0 0 16 15" fill="none" xmlns="http://www.w3.org/2000/svg">
<path d="M10.8949 4.47268L15.0108 5.07989C15.3516 5.12858 15.6381 5.36918 15.7469 5.69856C15.8557 6.03081 15.7669 6.39171 15.5206 6.63803L12.5361 9.56527L13.2407 13.7642C13.298 14.1079 13.1576 14.4574 12.8712 14.6607C12.5877 14.8641 12.2124 14.8899 11.906 14.7266L8.22831 12.7646L4.55352 14.7266C4.24418 14.8899 3.86897 14.8641 3.58541 14.6607C3.30185 14.4574 3.15864 14.1079 3.21879 13.7642L3.92339 9.56527L0.938299 6.63803C0.691689 6.39171 0.604044 6.03081 0.712312 5.69856C0.820293 5.36918 1.10586 5.12858 1.44928 5.07989L5.56172 4.47268L7.40628 0.682447C7.55808 0.366924 7.87888 0.166626 8.22831 0.166626C8.58061 0.166626 8.90141 0.366924 9.05321 0.682447L10.8949 4.47268Z" fill="#FFBE41"/>
</svg>
