<svg width="16" height="17" viewBox="0 0 16 17" fill="none" xmlns="http://www.w3.org/2000/svg">
<path d="M8.22765 13.6556L4.27954 15.7529C4.07325 15.8761 3.79247 15.856 3.57759 15.7042C3.36557 15.5523 3.25956 15.2887 3.27675 15.0309L4.05319 10.5756L0.870346 7.41829C0.68526 7.23779 0.619649 6.96561 0.701018 6.71634C0.782101 6.46994 0.996124 6.28944 1.2537 6.25219L5.64333 5.60181L7.60879 1.55399C7.72626 1.31702 7.96407 1.16663 8.22765 1.16663C8.49124 1.16663 8.73191 1.31704 8.84652 1.55399L10.812 5.60181L15.2042 6.25219C15.4621 6.28944 15.6741 6.46994 15.7572 6.71634C15.8374 6.96561 15.7715 7.23779 15.5881 7.41829L12.4021 10.5756L13.1556 15.0309C13.1986 15.2887 13.0926 15.5523 12.8777 15.7042C12.6657 15.856 12.3591 15.8761 12.1529 15.7529L8.22765 13.6556ZM6.46848 6.00293C6.33668 6.27511 6.07882 6.46421 5.77799 6.51005L1.84104 7.09167L4.70071 9.9224C4.90986 10.1315 5.00728 10.4324 4.95857 10.7275L4.2824 14.7243L7.79502 12.8477C8.06721 12.7016 8.39097 12.7016 8.66029 12.8477L12.1729 14.7243L11.4996 10.7275C11.448 10.4324 11.5455 10.1315 11.7575 9.9224L14.6168 7.09167L10.6773 6.51005C10.3536 6.46421 10.0957 6.27511 9.98683 6.00293L8.22765 2.37914L6.46848 6.00293Z" fill="#FFBE41"/>
</svg>
