<svg width="20" height="20" viewBox="0 0 20 20" fill="currentColor" xmlns="http://www.w3.org/2000/svg">
<path d="M19.935 14.7185C19.9114 14.58 19.8827 14.459 19.8529 14.3513C19.6734 13.7102 19.1154 13.2219 18.4312 13.1091L13.9878 12.3696C13.3333 12.2599 12.6779 12.5132 12.2758 13.0281C12.2204 13.0989 12.1671 13.1706 12.1178 13.2435C12.045 13.3501 11.9004 13.4497 11.7435 13.3809C9.43862 12.3788 7.61895 10.5591 6.61783 8.25428C6.54808 8.09529 6.64549 7.95581 6.75012 7.88503C6.84756 7.81939 6.94193 7.74866 7.03322 7.6748C7.53276 7.27067 7.78103 6.62443 7.68051 5.98745L6.99222 1.62296C6.88656 0.954179 6.42809 0.407424 5.79419 0.198175C5.64545 0.148939 5.47313 0.103855 5.27311 0.0679547C3.97453 -0.163861 2.64617 0.203312 1.62556 1.07929C0.555714 1.99834 -0.0371701 3.33392 0.00180792 4.74122C0.226445 13.0722 6.92655 19.7734 15.2576 19.998C15.2997 19.999 15.3418 20 15.3838 20C16.7347 20 18.0117 19.4153 18.9031 18.3834C19.7862 17.3607 20.1627 16.0242 19.935 14.7185ZM17.7369 17.3782C17.1204 18.0911 16.2238 18.4717 15.2976 18.4614C7.7851 18.2583 1.74145 12.2136 1.53835 4.70015C1.51373 3.75751 1.90968 2.8631 2.62769 2.24663C3.17031 1.78095 3.81754 1.53681 4.49248 1.53681C4.6607 1.53681 4.83101 1.55214 5.00128 1.58189C5.12027 1.60343 5.22178 1.62915 5.30999 1.65889C5.39513 1.68659 5.45769 1.76554 5.47308 1.86299L6.16137 6.22748C6.17676 6.32288 6.13985 6.41932 6.06702 6.47778C6.00753 6.52599 5.94697 6.57108 5.8844 6.61314C5.13151 7.12498 4.85256 8.05224 5.20644 8.86769C6.36347 11.5305 8.46725 13.6343 11.129 14.7913C11.9414 15.1442 12.8707 14.8663 13.3887 14.1103C13.4195 14.0662 13.4513 14.0221 13.4862 13.977C13.5415 13.9062 13.638 13.8723 13.7355 13.8867L18.1789 14.6262C18.2733 14.6426 18.3523 14.7 18.3717 14.7667C18.3902 14.8303 18.4056 14.9011 18.42 14.9821C18.5677 15.8315 18.3185 16.7043 17.7369 17.3782Z" fill="currentColor"/>
</svg>
