<svg width="21" height="20" viewBox="0 0 21 20" fill="none" xmlns="http://www.w3.org/2000/svg">
<path fill-rule="evenodd" clip-rule="evenodd" d="M13.3704 2.96329V3.88922H17.2593C17.5661 3.88922 17.8148 4.13795 17.8148 4.44477C17.8148 4.7516 17.5661 5.00033 17.2593 5.00033H3.55556C3.24873 5.00033 3 4.7516 3 4.44477C3 4.13795 3.24873 3.88922 3.55556 3.88922H7.44445V2.96329C7.44445 2.24736 8.02482 1.66699 8.74074 1.66699H12.0741C12.79 1.66699 13.3704 2.24736 13.3704 2.96329ZM8.55556 2.96329C8.55556 2.86101 8.63847 2.7781 8.74074 2.7781H12.0741C12.1764 2.7781 12.2593 2.86101 12.2593 2.96329V3.88922H8.55556V2.96329Z" fill="#FF2E6D"/>
<path d="M5.21968 6.2431C5.19012 5.93771 4.91859 5.71409 4.61319 5.74365C4.30779 5.7732 4.08418 6.04473 4.11373 6.35013L5.16007 17.1622C5.22437 17.8267 5.78277 18.3337 6.45033 18.3337H14.3646C15.0321 18.3337 15.5905 17.8267 15.6548 17.1622L16.7012 6.35013C16.7307 6.04473 16.5071 5.7732 16.2017 5.74365C15.8963 5.71409 15.6248 5.93771 15.5952 6.2431L14.5489 17.0552C14.5397 17.1501 14.4599 17.2225 14.3646 17.2225H6.45033C6.35497 17.2225 6.2752 17.1501 6.26601 17.0552L5.21968 6.2431Z" fill="#FF2E6D"/>
<path d="M8.33777 7.2235C8.64406 7.20549 8.90697 7.43918 8.92499 7.74548L9.29536 14.0418C9.31337 14.3481 9.07968 14.611 8.77338 14.629C8.46709 14.647 8.20418 14.4133 8.18616 14.107L7.81579 7.81072C7.79777 7.50443 8.03147 7.24152 8.33777 7.2235Z" fill="#FF2E6D"/>
<path d="M12.9991 7.81072C13.0171 7.50443 12.7834 7.24152 12.4771 7.2235C12.1708 7.20549 11.9079 7.43918 11.8899 7.74548L11.5195 14.0418C11.5015 14.3481 11.7352 14.611 12.0415 14.629C12.3478 14.647 12.6107 14.4133 12.6287 14.107L12.9991 7.81072Z" fill="#FF2E6D"/>
</svg>
