<svg width="24" height="24" fill="currentColor" xmlns="http://www.w3.org/2000/svg"><path fill-rule="evenodd" clip-rule="evenodd" d="M16.168 2.924 4.51 13.061a.25.25 0 0 0 .164.44h5.45a.748.748 0 0 1 .747.679.75.75 0 0 1-.055.361l-2.56 6.066 11.216-9.668a.25.25 0 0 0-.164-.439H14a.75.75 0 0 1-.687-1.05l2.855-6.526Zm-.452-1.595a1.34 1.34 0 0 1 2.109 1.55L15.147 9h4.16c1.624 0 2.373 2.016 1.144 3.075L8.1 22.721a1.15 1.15 0 0 1-1.81-1.317L8.997 15H4.674c-1.62 0-2.37-2.008-1.148-3.07l12.19-10.6Z"/></svg>